<svg width="112" height="142" viewBox="0 0 112 142" fill="none" xmlns="http://www.w3.org/2000/svg">
<g clip-path="url(#clip0)">
<path d="M1.1448 126.807C1.1448 125.373 1.4264 124.102 1.9896 122.992C2.56987 121.883 3.3464 121.03 4.3192 120.432C5.30907 119.835 6.40987 119.536 7.6216 119.536C8.67973 119.536 9.60133 119.75 10.3864 120.176C11.1885 120.603 11.8285 121.141 12.3064 121.789V119.767H15.916V133.949H12.3064V131.876C11.8456 132.541 11.2056 133.096 10.3864 133.54C9.58427 133.966 8.65413 134.18 7.596 134.18C6.40133 134.18 5.30907 133.872 4.3192 133.258C3.3464 132.644 2.56987 131.782 1.9896 130.672C1.4264 129.546 1.1448 128.257 1.1448 126.807ZM12.3064 126.858C12.3064 125.988 12.1357 125.245 11.7944 124.631C11.4531 123.999 10.9923 123.521 10.412 123.197C9.83173 122.856 9.2088 122.685 8.5432 122.685C7.8776 122.685 7.2632 122.847 6.7 123.172C6.1368 123.496 5.676 123.974 5.3176 124.605C4.97627 125.22 4.8056 125.953 4.8056 126.807C4.8056 127.66 4.97627 128.411 5.3176 129.06C5.676 129.691 6.1368 130.177 6.7 130.519C7.28027 130.86 7.89467 131.031 8.5432 131.031C9.2088 131.031 9.83173 130.869 10.412 130.544C10.9923 130.203 11.4531 129.725 11.7944 129.111C12.1357 128.479 12.3064 127.728 12.3064 126.858ZM23.0004 115.005V133.949H19.4164V115.005H23.0004ZM39.9302 119.767V133.949H36.3206V132.157C35.8598 132.772 35.2539 133.258 34.503 133.616C33.7691 133.958 32.967 134.128 32.0966 134.128C30.9873 134.128 30.0059 133.898 29.1526 133.437C28.2993 132.959 27.6251 132.268 27.1302 131.364C26.6523 130.442 26.4134 129.35 26.4134 128.087V119.767H29.9974V127.575C29.9974 128.701 30.279 129.572 30.8422 130.186C31.4054 130.783 32.1734 131.082 33.1462 131.082C34.1361 131.082 34.9126 130.783 35.4758 130.186C36.039 129.572 36.3206 128.701 36.3206 127.575V119.767H39.9302ZM61.0792 119.562C62.82 119.562 64.2195 120.1 65.2776 121.175C66.3528 122.233 66.8904 123.718 66.8904 125.629V133.949H63.3064V126.116C63.3064 125.006 63.0248 124.161 62.4616 123.581C61.8984 122.984 61.1304 122.685 60.1576 122.685C59.1848 122.685 58.4083 122.984 57.828 123.581C57.2648 124.161 56.9832 125.006 56.9832 126.116V133.949H53.3992V126.116C53.3992 125.006 53.1176 124.161 52.5544 123.581C51.9912 122.984 51.2232 122.685 50.2504 122.685C49.2605 122.685 48.4755 122.984 47.8952 123.581C47.332 124.161 47.0504 125.006 47.0504 126.116V133.949H43.4664V119.767H47.0504V121.482C47.5112 120.885 48.1 120.415 48.8168 120.074C49.5507 119.733 50.3528 119.562 51.2232 119.562C52.3325 119.562 53.3224 119.801 54.1928 120.279C55.0632 120.74 55.7373 121.405 56.2152 122.276C56.676 121.456 57.3416 120.799 58.212 120.304C59.0995 119.809 60.0552 119.562 61.0792 119.562ZM76.589 134.18C75.2237 134.18 73.9949 133.881 72.9026 133.284C71.8103 132.669 70.9485 131.807 70.317 130.698C69.7026 129.589 69.3954 128.309 69.3954 126.858C69.3954 125.407 69.7111 124.127 70.3426 123.018C70.9911 121.909 71.8701 121.055 72.9794 120.458C74.0887 119.844 75.3261 119.536 76.6914 119.536C78.0567 119.536 79.2941 119.844 80.4034 120.458C81.5127 121.055 82.3831 121.909 83.0146 123.018C83.6631 124.127 83.9874 125.407 83.9874 126.858C83.9874 128.309 83.6546 129.589 82.989 130.698C82.3405 131.807 81.453 132.669 80.3266 133.284C79.2173 133.881 77.9714 134.18 76.589 134.18ZM76.589 131.056C77.2375 131.056 77.8434 130.903 78.4066 130.596C78.9869 130.271 79.4477 129.793 79.789 129.162C80.1303 128.53 80.301 127.762 80.301 126.858C80.301 125.51 79.9426 124.477 79.2258 123.76C78.5261 123.026 77.6642 122.66 76.6402 122.66C75.6162 122.66 74.7543 123.026 74.0546 123.76C73.3719 124.477 73.0306 125.51 73.0306 126.858C73.0306 128.206 73.3634 129.247 74.029 129.981C74.7117 130.698 75.565 131.056 76.589 131.056ZM94.4756 119.562C96.1652 119.562 97.5305 120.1 98.5716 121.175C99.6127 122.233 100.133 123.718 100.133 125.629V133.949H96.5492V126.116C96.5492 124.989 96.2676 124.127 95.7044 123.53C95.1412 122.916 94.3732 122.608 93.4004 122.608C92.4105 122.608 91.6255 122.916 91.0452 123.53C90.482 124.127 90.2004 124.989 90.2004 126.116V133.949H86.6164V119.767H90.2004V121.533C90.6783 120.919 91.2841 120.441 92.018 120.1C92.7689 119.741 93.5881 119.562 94.4756 119.562ZM107.714 122.711V129.572C107.714 130.049 107.825 130.399 108.047 130.621C108.286 130.826 108.678 130.928 109.225 130.928H110.889V133.949H108.636C105.615 133.949 104.105 132.481 104.105 129.546V122.711H102.415V119.767H104.105V116.26H107.714V119.767H110.889V122.711H107.714Z" fill="#1D2029"/>
</g>
<path fill-rule="evenodd" clip-rule="evenodd" d="M51.7731 89.4885H32L32.2749 24.8154C32.2749 24.8154 32 0 55.8427 0C79.6853 0 79.6853 24.8154 79.6853 24.8154V89.3391H59.6062V64.8515H51.7731V89.4885ZM59.2 23.9255H52V47.9933H59.2V23.9255Z" fill="#48CAA6"/>
<defs>
<clipPath id="clip0">
<rect width="112" height="36.1017" fill="white" transform="translate(0 105.898)"/>
</clipPath>
</defs>
</svg>
