<?xml version="1.0" encoding="UTF-8"?>
<svg width="226px" height="86px" viewBox="0 0 226 86" version="1.1" xmlns="http://www.w3.org/2000/svg" xmlns:xlink="http://www.w3.org/1999/xlink">
    <!-- Generator: Sketch 57.1 (83088) - https://sketch.com -->
    <title>Group 11</title>
    <desc>Created with Sketch.</desc>
    <g id="Page-1" stroke="none" stroke-width="1" fill="none" fill-rule="evenodd">
        <g id="1.1_login-copy-4" transform="translate(-78.000000, -96.000000)">
            <g id="Group-11" transform="translate(74.000000, 96.000000)">
                <path d="M19.072435,0.959183673 C28.5929472,0.959183673 33.3532032,5.90407436 33.3532032,15.7938557 L33.3532032,15.7938557 L33.3532032,54.3662251 L21.326654,54.3662251 L21.326654,39.7274525 L16.6349444,39.7274525 L16.6349444,54.4555258 L4.79166667,54.4555258 L4.95633898,15.7938557 C4.84655744,5.90407436 9.55192276,0.959183673 19.072435,0.959183673 Z M21.0833333,15.2618632 L16.7708333,15.2618632 L16.7708333,29.6496183 L21.0833333,29.6496183 L21.0833333,15.2618632 Z" id="Path-3-Copy-3" fill="#0F6734"></path>
                <polygon id="Path-11-Copy" fill="#0F6734" points="36.5677698 1.59444964 36.5677698 54.4555258 48.2974562 54.4555258 48.2974562 1.59444964"></polygon>
                <path d="M51.4238094,15.2618632 C51.239858,29.0400164 51.239858,36.8697792 51.4238094,38.7511518 C51.6997364,41.5732106 54.6062854,54.4555258 65.5048916,54.4555258 C76.4034978,54.4555258 80.0165116,42.23434 80.1583506,41.0469223 C80.2529099,40.2553106 80.2529099,39.0202807 80.1583506,37.3418326 L64.6042344,37.3418326 L64.6042344,15.2618632 L51.4238094,15.2618632 Z" id="Path-12-Copy" fill="#0F6734"></path>
                <polygon id="Path-13-Copy" fill="#0F6734" points="67.7658271 15.2618632 67.7658271 34.0174465 80.2292701 34.0174465 80.2292701 15.2618632"></polygon>
                <polygon id="Path-14-Copy-7" fill="#0F6734" points="83.4289023 37.5916602 83.4289023 54.4555258 95.5803913 54.4555258 95.5803913 37.5916602"></polygon>
                <polygon id="Path-14-Copy-6" fill="#0F6734" points="115.533069 37.5916602 115.533069 54.4555258 127.684558 54.4555258 127.684558 37.5916602"></polygon>
                <polygon id="Path-14-Copy-5" fill="#0F6734" points="170.637236 37.5916602 170.637236 54.4555258 182.788725 54.4555258 182.788725 37.5916602"></polygon>
                <polygon id="Path-14-Copy-4" fill="#0F6734" points="209.928902 37.5916602 209.928902 54.4555258 222.080391 54.4555258 222.080391 37.5916602"></polygon>
                <path d="M99.0786776,54.4555258 L112.113833,54.4555258 L112.113833,34.0174465 L127.684558,34.0174465 C127.684558,21.5137243 123.234812,15.2618632 114.335321,15.2618632 C111.163406,14.9763252 108.10115,15.7279405 105.148554,17.5167088 C101.509405,15.848654 98.3200169,15.0970388 95.5803913,15.2618632 C87.4793986,15.8658957 83.4289023,22.1177569 83.4289023,34.0174465 L99.0786776,34.0174465" id="Path-15-Copy" fill="#0F6734"></path>
                <path d="M130.094633,37.5916602 L168.545097,37.5916602 C165.849616,48.8342373 159.662755,54.4555258 149.984516,54.4555258 C140.306277,54.4555258 133.676316,48.8342373 130.094633,37.5916602 Z" id="Path-16-Copy-3" fill="#0F6734"></path>
                <path d="M130.333333,15.2618632 L168.783798,15.2618632 C167.621445,27.8400689 161.213034,34.1291718 149.558566,34.1291718 C137.904098,34.1291718 131.495687,27.8400689 130.333333,15.2618632 Z" id="Path-16-Copy-2" fill="#0F6734" transform="translate(149.558566, 24.695517) scale(1, -1) translate(-149.558566, -24.695517) "></path>
                <path d="M170.637236,34.1291718 C170.637236,21.550966 175.347303,15.2618632 184.767437,15.2618632 C194.187572,15.2618632 198.897639,21.2514011 198.897639,33.230477 L198.897639,54.4555258 L186.485781,54.4555258 L186.485781,34.1291718 L170.637236,34.1291718 Z" id="Path-17-Copy" fill="#0F6734"></path>
                <polygon id="Path-18-Copy" fill="#0F6734" points="201.689966 1.42108547e-14 201.689966 34.1291718 230 34.1291718 230 1.42108547e-14"></polygon>
                <path d="M30.8718801,67.4889688 L26.7758006,67.4889688 L25.4627716,73.6885364 L29.5588511,73.6885364 C30.5959589,73.6885364 31.4570309,73.4361755 32.1420929,72.9314463 C32.8271549,72.4267171 33.2838561,71.6267809 33.5122101,70.5316137 C33.7500789,69.4364465 33.6287676,68.6555564 33.1482727,68.18892 C32.6677778,67.7222836 31.9089879,67.4889688 30.8718801,67.4889688 Z M29.1592336,77.3168547 L24.6920807,77.3168547 L23.0936107,84.8877551 L18.7263621,84.8877551 L23.193515,63.8320811 L32.3561737,63.8320811 C34.4684483,63.8320811 36.0359799,64.3748949 37.0588155,65.4605389 C38.0816512,66.5461829 38.3551962,68.2270012 37.8794586,70.5030443 C37.3466326,72.9885976 36.3428415,74.7456003 34.8680552,75.7741051 C33.3932689,76.80261 31.4903474,77.3168547 29.1592336,77.3168547 Z M49.8659251,68.9745795 L48.9810578,73.1457171 C48.7336742,73.1171475 48.510081,73.0981014 48.3102712,73.0885782 C48.1104615,73.079055 47.9487131,73.0742935 47.8250214,73.0742935 C46.1884843,73.0742935 44.9753719,73.6075843 44.1856476,74.6741819 C43.7479691,75.274143 43.3959286,76.1978789 43.1295156,77.4454171 L41.5595897,84.8877551 L37.4635101,84.8877551 L40.7603546,69.3174127 L44.6423533,69.3174127 L44.0714712,72.0315091 C44.9182839,70.9934811 45.6128503,70.2840138 46.1551911,69.9030861 C47.0590923,69.2650322 48.1199711,68.94601 49.3378591,68.94601 C49.4139771,68.94601 49.4782007,68.9483908 49.5305318,68.9531524 C49.582863,68.957914 49.6946596,68.9650563 49.8659251,68.9745795 Z M60.910436,77.1311533 C61.2434523,75.5693497 61.1792287,74.3670647 60.7177633,73.5242621 C60.2562979,72.6814595 59.4309057,72.2600646 58.2415619,72.2600646 C57.0522181,72.2600646 56.048427,72.6814595 55.2301585,73.5242621 C54.41189,74.3670647 53.8362562,75.5693497 53.5032399,77.1311533 C53.1702237,78.692957 53.2344473,79.8976228 53.6959127,80.7451869 C54.1573781,81.5927511 54.9827703,82.0165268 56.1721141,82.0165268 C57.3614578,82.0165268 58.3652489,81.5927511 59.1835175,80.7451869 C60.001786,79.8976228 60.5774197,78.692957 60.910436,77.1311533 Z M55.4585114,85.4305744 C52.7848665,85.4305744 50.9651978,84.6187344 49.9994507,82.99503 C49.0337035,81.3713256 48.7934597,79.4167196 49.278712,77.1311533 C49.7544495,74.8836798 50.8248428,72.9362161 52.4899241,71.2887038 C54.1550054,69.6411914 56.3243359,68.8174476 58.9979808,68.8174476 C61.6716256,68.8174476 63.4889156,69.6411914 64.4499054,71.2887038 C65.4108952,72.9362161 65.6535177,74.8836798 65.1777802,77.1311533 C64.6925279,79.4167196 63.6197559,81.3713256 61.959432,82.99503 C60.299108,84.6187344 58.1321562,85.4305744 55.4585114,85.4305744 Z M77.9492096,63.7035186 L77.2356069,67.0175731 C77.0167676,66.9890036 76.6409406,66.9675767 76.1081146,66.9532919 C75.5752886,66.9390071 75.1780537,67.0580452 74.9163981,67.3104099 C74.6547425,67.5627745 74.4953728,67.8413237 74.4382843,68.1460658 C74.371681,68.450808 74.276535,68.8888683 74.1528432,69.4602599 L76.8217173,69.4602599 L76.208019,72.3314882 L73.5391449,72.3314882 L70.8845428,84.8877551 L66.8312795,84.8877551 L69.4858815,72.3314882 L67.2166249,72.3314882 L67.8303233,69.4602599 L70.0567637,69.4602599 L70.2708445,68.4603296 C70.6228903,66.7937709 71.1461937,65.6462434 71.8407705,65.0177127 C72.6304947,64.0844398 74.1528319,63.6178103 76.4078277,63.6178103 C76.664726,63.6178103 76.8954552,63.6249526 77.1000224,63.6392374 C77.3045895,63.6535222 77.5876491,63.674949 77.9492096,63.7035186 Z M83.4847076,67.4603994 L79.360084,67.4603994 L80.159319,63.7035186 L84.2839426,63.7035186 L83.4847076,67.4603994 Z M78.9604665,69.3174127 L83.0850901,69.3174127 L79.7882456,84.8877551 L75.663622,84.8877551 L78.9604665,69.3174127 Z" id="Profi" fill="#0F6734" fill-rule="nonzero"></path>
                <path d="M118.505684,77.3168547 C118.220242,77.4787489 117.934804,77.6096909 117.649361,77.7096844 C117.363919,77.8096779 116.983334,77.9025277 116.507597,77.9882364 L115.565641,78.159653 C114.671255,78.3120241 114.014747,78.4977236 113.596098,78.716757 C112.892006,79.0881615 112.459092,79.6643061 112.297341,80.4452079 C112.145105,81.1404009 112.228358,81.6427418 112.547102,81.9522456 C112.865846,82.2617494 113.301139,82.4164989 113.852995,82.4164989 C114.728352,82.4164989 115.589424,82.1593766 116.436237,81.6451242 C117.283049,81.1308718 117.868198,80.1928513 118.191699,78.8310348 L118.505684,77.3168547 Z M116.436237,75.4169872 C117.216446,75.3217553 117.782565,75.2027172 118.134611,75.0598693 C118.762585,74.8122662 119.133654,74.4265827 119.247831,73.9028071 C119.381038,73.2647532 119.252591,72.8243121 118.862486,72.5814707 C118.472381,72.3386293 117.849174,72.2172104 116.992847,72.2172104 C116.031857,72.2172104 115.299232,72.4552867 114.79495,72.9314463 C114.442905,73.2838044 114.152709,73.7599569 113.924355,74.3599181 L109.99954,74.3599181 C110.38013,72.9981015 110.99858,71.8791431 111.854907,71.0030094 C113.225031,69.6316696 115.218342,68.94601 117.834898,68.94601 C119.538038,68.94601 120.979501,69.2840783 122.15933,69.960225 C123.339159,70.6363717 123.729258,71.9124604 123.329639,73.7885294 L121.802529,80.9308883 C121.697867,81.4260943 121.583691,82.0260464 121.46,82.7307627 C121.374367,83.2640615 121.376745,83.6259374 121.467136,83.8164013 C121.557526,84.0068651 121.721653,84.1639954 121.959521,84.287797 L121.845345,84.8877551 L117.421008,84.8877551 C117.36392,84.5734897 117.340133,84.2782752 117.349648,84.0021026 C117.359163,83.72593 117.387707,83.4116694 117.43528,83.0593112 C116.740704,83.6687956 115.984292,84.1878018 115.166024,84.6163455 C114.17649,85.1210747 113.129883,85.3734355 112.026172,85.3734355 C110.617989,85.3734355 109.54046,84.9710866 108.793552,84.1663769 C108.046644,83.3616671 107.830186,82.2212818 108.144173,80.7451869 C108.553307,78.8310252 109.585642,77.4454214 111.241209,76.5883341 C112.14511,76.1216976 113.405796,75.7883909 115.023303,75.5884038 L116.436237,75.4169872 Z M148.949005,70.7744539 C149.262992,71.3172759 149.415226,71.9838894 149.405711,72.7743144 C149.386681,73.29809 149.272506,74.0646955 149.063182,75.074154 L146.950918,84.8877551 L142.783478,84.8877551 L144.88147,74.974161 C145.005161,74.383723 145.014676,73.8980475 144.910014,73.5171197 C144.700689,72.7933571 144.110784,72.4314812 143.140279,72.4314812 C142.017539,72.4314812 141.142195,72.8981106 140.514221,73.8313835 C140.19072,74.3265896 139.952854,74.9217802 139.800618,75.6169733 L137.845347,84.8877551 L133.749268,84.8877551 L135.704539,75.6169733 C135.904349,74.6932236 135.951922,74.0218485 135.84726,73.602828 C135.666479,72.8504958 135.076574,72.4743353 134.077525,72.4743353 C132.916725,72.4743353 132.055653,72.8504958 131.494283,73.602828 C131.189811,74.0313717 130.947189,74.6694161 130.766408,75.5169802 L128.782593,84.8877551 L124.657969,84.8877551 L127.954814,69.3459821 L131.908173,69.3459821 L131.422923,71.6172523 C132.09847,70.8077809 132.69789,70.2316364 133.221202,69.8888014 C134.134618,69.2793171 135.219283,68.9745795 136.47523,68.9745795 C137.664574,68.9745795 138.573219,69.2364634 139.201192,69.760239 C139.686444,70.2459218 140.000427,70.8696816 140.143148,71.631537 C140.866269,70.7173105 141.670253,70.0459355 142.555125,69.6173918 C143.478056,69.1888481 144.453303,68.9745795 145.480896,68.9745795 C146.165958,68.9745795 146.812951,69.1079022 147.421895,69.3745516 C148.030839,69.641201 148.539871,70.1078304 148.949005,70.7744539 Z" id="am" fill="#0F6734" fill-rule="nonzero"></path>
                <path d="M163.236478,67.4889688 L162.251706,72.1315021 L167.418189,72.1315021 C168.34112,72.1315021 169.128454,71.9577065 169.780214,71.6101099 C170.431975,71.2625134 170.852996,70.6458959 171.043291,69.760239 C171.243101,68.7793501 171.000478,68.1317827 170.315416,67.8175173 C169.696958,67.5984839 168.878701,67.4889688 167.860623,67.4889688 L163.236478,67.4889688 Z M161.509559,75.6169733 L160.324979,81.2308673 L165.491462,81.2308673 C166.414393,81.2308673 167.156532,81.1070677 167.717903,80.8594647 C168.75501,80.4023514 169.411518,79.5262308 169.687446,78.2310766 C169.9158,77.1359094 169.620847,76.3835885 168.802579,75.9740912 C168.345871,75.7455346 167.660819,75.6264964 166.747403,75.6169733 L161.509559,75.6169733 Z M175.039466,66.0747818 C175.496174,66.9699619 175.596078,68.041305 175.339179,69.2888433 C175.063252,70.5744743 174.516162,71.6077252 173.697893,72.388627 C173.2507,72.8266939 172.637008,73.226662 171.856798,73.5885433 C172.846332,73.9789942 173.524248,74.5979925 173.890566,75.4455566 C174.256884,76.2931208 174.311593,77.3216102 174.054695,78.5310557 C173.788282,79.7785939 173.236434,80.8975523 172.399136,81.8879644 C171.856796,82.5450647 171.238346,83.0974016 170.543769,83.5449916 C169.76356,84.059244 168.895352,84.4115969 167.939119,84.6020607 C166.982887,84.7925246 165.967203,84.8877551 164.892036,84.8877551 L155.358304,84.8877551 L159.825457,63.8320811 L170.044247,63.8320811 C172.61323,63.8701738 174.278286,64.6177333 175.039466,66.0747818 Z M186.386779,77.3168547 C186.101336,77.4787489 185.815898,77.6096909 185.530456,77.7096844 C185.245013,77.8096779 184.864429,77.9025277 184.388691,77.9882364 L183.446736,78.159653 C182.552349,78.3120241 181.895841,78.4977236 181.477192,78.716757 C180.773101,79.0881615 180.340186,79.6643061 180.178435,80.4452079 C180.026199,81.1404009 180.109452,81.6427418 180.428196,81.9522456 C180.74694,82.2617494 181.182234,82.4164989 181.734089,82.4164989 C182.609446,82.4164989 183.470518,82.1593766 184.317331,81.6451242 C185.164144,81.1308718 185.749292,80.1928513 186.072794,78.8310348 L186.386779,77.3168547 Z M184.317331,75.4169872 C185.09754,75.3217553 185.66366,75.2027172 186.015705,75.0598693 C186.643679,74.8122662 187.014749,74.4265827 187.128926,73.9028071 C187.262132,73.2647532 187.133685,72.8243121 186.74358,72.5814707 C186.353475,72.3386293 185.730269,72.2172104 184.873941,72.2172104 C183.912951,72.2172104 183.180326,72.4552867 182.676045,72.9314463 C182.323999,73.2838044 182.033803,73.7599569 181.805449,74.3599181 L177.880635,74.3599181 C178.261225,72.9981015 178.879674,71.8791431 179.736002,71.0030094 C181.106126,69.6316696 183.099436,68.94601 185.715992,68.94601 C187.419133,68.94601 188.860596,69.2840783 190.040425,69.960225 C191.220254,70.6363717 191.610353,71.9124604 191.210733,73.7885294 L189.683623,80.9308883 C189.578961,81.4260943 189.464786,82.0260464 189.341094,82.7307627 C189.255461,83.2640615 189.25784,83.6259374 189.34823,83.8164013 C189.43862,84.0068651 189.602747,84.1639954 189.840616,84.287797 L189.726439,84.8877551 L185.302103,84.8877551 C185.245014,84.5734897 185.221228,84.2782752 185.230742,84.0021026 C185.240257,83.72593 185.268801,83.4116694 185.316375,83.0593112 C184.621798,83.6687956 183.865387,84.1878018 183.047118,84.6163455 C182.057584,85.1210747 181.010977,85.3734355 179.907266,85.3734355 C178.499083,85.3734355 177.421554,84.9710866 176.674646,84.1663769 C175.927738,83.3616671 175.711281,82.2212818 176.025268,80.7451869 C176.434402,78.8310252 177.466737,77.4454214 179.122303,76.5883341 C180.026205,76.1216976 181.28689,75.7883909 182.904398,75.5884038 L184.317331,75.4169872 Z M199.960532,69.3174127 L197.976716,78.7024723 C197.786421,79.5881292 197.748363,80.2547427 197.86254,80.7023328 C198.062349,81.4927578 198.704585,81.8879644 199.789267,81.8879644 C201.178421,81.8879644 202.248814,81.3261044 203.000479,80.2023677 C203.400099,79.5928833 203.704566,78.7881856 203.913891,77.7882504 L205.712169,69.3174127 L209.836793,69.3174127 L206.539949,84.8877551 L202.58659,84.8877551 L203.043295,82.6879086 C202.995722,82.7355245 202.872032,82.8783703 202.672222,83.1164501 C202.472412,83.3545299 202.248819,83.564037 202.001435,83.7449777 C201.240255,84.3163692 200.538553,84.7068143 199.896307,84.9163245 C199.254062,85.1258348 198.53333,85.2305883 197.734091,85.2305883 C195.431522,85.2305883 194.056661,84.402083 193.609468,82.7450474 C193.362084,81.8308209 193.428686,80.4833094 193.809276,78.7024723 L195.793092,69.3174127 L199.960532,69.3174127 Z" id="Bau" fill="#0F6734" fill-rule="nonzero"></path>
                <polygon id="Path-19-Copy" stroke="#0F6734" stroke-width="0.72" points="86.1870254 64.0833871 82.5978591 84.0757854 102.147376 84.0757854 98.8268415 74.0795863 95.5803913 74.0795863 97.1121077 80.0113231 88.161578 80.0113231 90.7527157 64.0833871"></polygon>
            </g>
        </g>
    </g>
</svg>