<svg width="350" height="240" viewBox="0 0 350 240" fill="none" xmlns="http://www.w3.org/2000/svg">
<path fill-rule="evenodd" clip-rule="evenodd" d="M176.199 221.93C107.166 202.776 62.0911 268.568 44.3493 221.93C26.5445 175.269 0 190.365 0 165.629C0 140.841 27.5956 137.748 31.7637 118.013C37.3873 91.4479 17.6027 77.0923 24.8716 60.814C37.6782 32.1486 99.9863 -9.27624 183.69 24.8773C267.387 59.0292 365.893 37.783 338.313 93.7559C310.739 149.862 365.893 149.862 345.205 195.277C324.642 240.515 244.964 241.061 176.199 221.93Z" fill="#F2F5F9"/>
<mask id="mask0" mask-type="alpha" maskUnits="userSpaceOnUse" x="0" y="12" width="350" height="228">
<path fill-rule="evenodd" clip-rule="evenodd" d="M176.199 221.93C107.166 202.776 62.0911 268.568 44.3493 221.93C26.5445 175.269 0 190.365 0 165.629C0 140.841 27.5956 137.748 31.7637 118.013C37.3873 91.4479 17.6027 77.0923 24.8716 60.814C37.6782 32.1486 99.9863 -9.27624 183.69 24.8773C267.387 59.0292 365.893 37.783 338.313 93.7559C310.739 149.862 365.893 149.862 345.205 195.277C324.642 240.515 244.964 241.061 176.199 221.93Z" fill="white"/>
</mask>
<g mask="url(#mask0)">
<path fill-rule="evenodd" clip-rule="evenodd" d="M295.526 157.877C295.388 153.923 285.081 154.814 281.105 155.196C277.129 155.577 276.768 150.161 280.198 149.356C283.629 148.551 289.85 148.966 293.073 148.223C296.296 147.48 292.219 143.495 296.611 143.014C301.003 142.534 310.084 142.979 312.791 142.881C317.044 142.728 319.225 147.844 311.775 148.076C309.721 148.14 309.309 152.685 316.244 151.437C320.596 150.653 329.134 150.635 330.91 152.636C331.93 153.783 331.576 156.867 329.824 158.569C328.523 159.834 324.384 160.081 322.762 160.373C318.958 161.059 319.71 164.74 321.007 165.498C324.077 167.292 332.501 163.907 332.727 168.832C332.826 171.008 325.161 171.359 322.019 171.333C314.31 171.268 309.246 171.954 308.89 169.326C308.534 166.688 313.68 168.469 313.426 165.225C313.294 163.531 313.649 159.93 310.347 160.119C314.868 159.86 295.712 163.216 295.526 157.877Z" fill="url(#paint0_linear)"/>
<path fill-rule="evenodd" clip-rule="evenodd" d="M234.1 186.2C235.373 186.577 238.056 183.386 238.261 180.28C238.467 177.174 235.537 177.468 237.12 171.915C238.703 166.362 240.196 163.822 235.076 158.273C229.956 152.724 231.14 147.761 226.551 147.831C221.961 147.901 222.406 154.565 225.157 159.327C227.908 164.089 227.497 165.533 223.543 166.75C219.59 167.967 226.12 173.796 226.862 175.388C227.603 176.979 226.73 180.984 228.234 182.989C229.738 184.995 232.828 185.824 234.1 186.2Z" fill="url(#paint1_linear)"/>
<path d="M233.037 178.258C232.468 177.036 230.385 173.375 227.625 171.841" stroke="url(#paint2_linear)" stroke-width="0.63" stroke-linecap="round"/>
<path d="M232.341 169.908C231.771 168.687 234.802 166.23 235.401 163.129" stroke="url(#paint3_linear)" stroke-width="0.63" stroke-linecap="round"/>
<path d="M234.745 192.863C234.502 192.344 234.305 189.584 233.896 186.472C232.612 176.725 232.051 164.247 228.67 156.996" stroke="url(#paint4_linear)" stroke-width="0.63" stroke-linecap="round"/>
<g opacity="0.4">
<path d="M299.877 182.511C299.877 178.618 303.145 166.568 307.556 159.974" stroke="#A1B8E3" stroke-width="0.63" stroke-linecap="round"/>
<path fill-rule="evenodd" clip-rule="evenodd" d="M305.509 161.807C305.509 161.807 305.697 159.867 304.718 158.172C303.739 156.478 302.505 155.357 301.963 155.67C301.421 155.983 301.775 157.611 302.754 159.305C303.733 161 305.509 161.807 305.509 161.807Z" fill="#A1B8E3"/>
<path fill-rule="evenodd" clip-rule="evenodd" d="M306.656 162.478C306.656 162.478 308.282 163.555 310.239 163.487C312.196 163.418 313.765 162.856 313.743 162.231C313.721 161.605 312.117 161.154 310.16 161.222C308.203 161.29 306.656 162.478 306.656 162.478Z" fill="#A1B8E3"/>
<path fill-rule="evenodd" clip-rule="evenodd" d="M304.543 167.432C304.543 167.432 306.11 168.593 308.068 168.627C310.026 168.661 311.622 168.182 311.633 167.556C311.643 166.93 310.065 166.395 308.107 166.361C306.15 166.327 304.543 167.432 304.543 167.432Z" fill="#A1B8E3"/>
<path fill-rule="evenodd" clip-rule="evenodd" d="M302.824 172.416C302.824 172.416 304.391 173.577 306.349 173.611C308.307 173.645 309.903 173.166 309.914 172.54C309.925 171.914 308.346 171.38 306.389 171.345C304.431 171.311 302.824 172.416 302.824 172.416Z" fill="#A1B8E3"/>
<path fill-rule="evenodd" clip-rule="evenodd" d="M307.937 159.232C307.937 159.232 309.752 158.518 310.819 156.877C311.885 155.236 312.324 153.629 311.799 153.288C311.274 152.948 309.984 154.002 308.917 155.643C307.851 157.284 307.937 159.232 307.937 159.232Z" fill="#A1B8E3"/>
<path fill-rule="evenodd" clip-rule="evenodd" d="M303.249 166.85C303.249 166.85 303.063 164.91 301.778 163.433C300.494 161.956 299.069 161.091 298.597 161.502C298.124 161.913 298.783 163.443 300.067 164.92C301.352 166.396 303.249 166.85 303.249 166.85Z" fill="#A1B8E3"/>
<path fill-rule="evenodd" clip-rule="evenodd" d="M301.406 172.044C301.406 172.044 301.018 170.134 299.586 168.799C298.154 167.464 296.646 166.753 296.219 167.211C295.792 167.669 296.607 169.121 298.039 170.456C299.471 171.791 301.406 172.044 301.406 172.044Z" fill="#A1B8E3"/>
</g>
<path fill-rule="evenodd" clip-rule="evenodd" d="M237.414 150.236C237.414 146.177 240.705 142.886 244.764 142.886H282.906C288.125 142.886 292.356 147.117 292.356 152.336V242.251C292.356 246.31 289.065 249.601 285.006 249.601H244.764C240.705 249.601 237.414 246.31 237.414 242.251V150.236Z" fill="url(#paint5_linear)"/>
<path fill-rule="evenodd" clip-rule="evenodd" d="M232.428 150.131C232.428 146.072 235.718 142.781 239.778 142.781H280.02C284.079 142.781 287.37 146.072 287.37 150.131V242.146C287.37 246.205 284.079 249.496 280.02 249.496H239.778C235.718 249.496 232.428 246.205 232.428 242.146V150.131Z" fill="url(#paint6_linear)"/>
<path fill-rule="evenodd" clip-rule="evenodd" d="M245.527 150.462C245.527 150.027 245.88 149.674 246.315 149.674H273.606C274.04 149.674 274.393 150.027 274.393 150.462V150.802C274.393 151.237 274.04 151.589 273.606 151.589H246.315C245.88 151.589 245.527 151.237 245.527 150.802V150.462Z" fill="url(#paint7_linear)"/>
<path fill-rule="evenodd" clip-rule="evenodd" d="M234.732 159.359C234.732 158.663 235.297 158.099 235.992 158.099H283.927C284.623 158.099 285.187 158.663 285.187 159.359V232.918C285.187 233.614 284.623 234.178 283.927 234.178H235.992C235.297 234.178 234.732 233.614 234.732 232.918V159.359Z" fill="url(#paint8_linear)"/>
<mask id="mask1" mask-type="alpha" maskUnits="userSpaceOnUse" x="234" y="158" width="52" height="77">
<path fill-rule="evenodd" clip-rule="evenodd" d="M234.732 159.359C234.732 158.663 235.297 158.099 235.992 158.099H283.927C284.623 158.099 285.187 158.663 285.187 159.359V232.918C285.187 233.614 284.623 234.178 283.927 234.178H235.992C235.297 234.178 234.732 233.614 234.732 232.918V159.359Z" fill="white"/>
</mask>
<g mask="url(#mask1)">
<rect opacity="0.4" x="238.938" y="198.812" width="40.1069" height="2.41332" rx="1.20666" fill="url(#paint9_linear)"/>
<rect opacity="0.4" x="238.938" y="202.695" width="28.9777" height="2.41332" rx="1.20666" fill="url(#paint10_linear)"/>
<path opacity="0.4" fill-rule="evenodd" clip-rule="evenodd" d="M238.938 211.771C238.938 211.104 239.478 210.564 240.144 210.564H276.578C277.244 210.564 277.784 211.104 277.784 211.771C277.784 212.437 277.244 212.978 276.578 212.978H240.144C239.478 212.978 238.938 212.437 238.938 211.771Z" fill="url(#paint11_linear)"/>
<path opacity="0.6" fill-rule="evenodd" clip-rule="evenodd" d="M238.938 168.303C238.938 167.143 239.878 166.203 241.037 166.203H249.55V179.773H238.938V168.303Z" fill="url(#paint12_linear)"/>
<mask id="mask2" mask-type="alpha" maskUnits="userSpaceOnUse" x="238" y="166" width="12" height="14">
<path fill-rule="evenodd" clip-rule="evenodd" d="M238.938 168.303C238.938 167.143 239.878 166.203 241.037 166.203H249.55V179.773H238.938V168.303Z" fill="white"/>
</mask>
<g mask="url(#mask2)">
<path opacity="0.7" fill-rule="evenodd" clip-rule="evenodd" d="M240.795 177.473C240.795 175.495 242.399 173.891 244.377 173.891C246.355 173.891 247.958 175.495 247.958 177.473V181.846H240.795V177.473Z" fill="white"/>
<path fill-rule="evenodd" clip-rule="evenodd" d="M244.339 175.155C245.843 175.155 247.062 173.94 247.062 172.441C247.062 170.943 245.843 169.728 244.339 169.728C242.835 169.728 241.615 170.943 241.615 172.441C241.615 173.94 242.835 175.155 244.339 175.155Z" fill="white"/>
</g>
<path opacity="0.6" fill-rule="evenodd" clip-rule="evenodd" d="M238.938 180.687H249.55V194.257H241.457C240.066 194.257 238.938 193.128 238.938 191.737V180.687Z" fill="url(#paint13_linear)"/>
<mask id="mask3" mask-type="alpha" maskUnits="userSpaceOnUse" x="238" y="180" width="12" height="15">
<path fill-rule="evenodd" clip-rule="evenodd" d="M238.938 180.687H249.55V194.257H241.457C240.066 194.257 238.938 193.128 238.938 191.737V180.687Z" fill="white"/>
</mask>
<g mask="url(#mask3)">
<path opacity="0.7" fill-rule="evenodd" clip-rule="evenodd" d="M240.795 191.957C240.795 189.978 242.399 188.375 244.377 188.375C246.355 188.375 247.958 189.978 247.958 191.957V196.33H240.795V191.957Z" fill="white"/>
<path fill-rule="evenodd" clip-rule="evenodd" d="M244.339 189.639C245.843 189.639 247.062 188.424 247.062 186.925C247.062 185.426 245.843 184.211 244.339 184.211C242.835 184.211 241.615 185.426 241.615 186.925C241.615 188.424 242.835 189.639 244.339 189.639Z" fill="white"/>
</g>
<path opacity="0.6" fill-rule="evenodd" clip-rule="evenodd" d="M250.393 180.687H261.005V191.737C261.005 193.128 259.877 194.257 258.485 194.257H250.393V180.687Z" fill="url(#paint14_linear)"/>
<mask id="mask4" mask-type="alpha" maskUnits="userSpaceOnUse" x="250" y="180" width="12" height="15">
<path fill-rule="evenodd" clip-rule="evenodd" d="M250.393 180.687H261.005V191.737C261.005 193.128 259.877 194.257 258.485 194.257H250.393V180.687Z" fill="white"/>
</mask>
<g mask="url(#mask4)">
<path opacity="0.7" fill-rule="evenodd" clip-rule="evenodd" d="M252.25 191.957C252.25 189.978 253.854 188.375 255.832 188.375C257.81 188.375 259.414 189.978 259.414 191.957V196.33H252.25V191.957Z" fill="white"/>
<path fill-rule="evenodd" clip-rule="evenodd" d="M255.794 189.639C257.298 189.639 258.518 188.424 258.518 186.925C258.518 185.426 257.298 184.211 255.794 184.211C254.29 184.211 253.07 185.426 253.07 186.925C253.07 188.424 254.29 189.639 255.794 189.639Z" fill="white"/>
</g>
<path opacity="0.325279" fill-rule="evenodd" clip-rule="evenodd" d="M250.697 164.367C250.697 163.207 251.637 162.267 252.797 162.267H262.091C263.251 162.267 264.191 163.207 264.191 164.367V177.463C264.191 178.623 263.251 179.563 262.091 179.563H250.697V164.367Z" stroke="#7188B0" stroke-width="0.735" stroke-linecap="round" stroke-linejoin="round" stroke-dasharray="0.84 2.1"/>
<g style="mix-blend-mode:multiply" opacity="0.3">
<path fill-rule="evenodd" clip-rule="evenodd" d="M257.462 167.828C257.202 167.828 256.992 168.039 256.992 168.299V170.447H254.841C254.582 170.447 254.371 170.658 254.371 170.918V170.972C254.371 171.232 254.582 171.442 254.841 171.442H256.992V173.591C256.992 173.851 257.202 174.061 257.462 174.061H257.517C257.777 174.061 257.987 173.851 257.987 173.591V171.442H260.138C260.397 171.442 260.608 171.232 260.608 170.972V170.918C260.608 170.658 260.397 170.447 260.138 170.447H257.987V168.299C257.987 168.039 257.777 167.828 257.517 167.828H257.462Z" fill="url(#paint15_linear)"/>
<path d="M256.992 170.447V170.697H257.242V170.447H256.992ZM256.992 171.442H257.242V171.192H256.992V171.442ZM257.987 171.442V171.192H257.737V171.442H257.987ZM257.987 170.447H257.737V170.697H257.987V170.447ZM257.242 168.299C257.242 168.177 257.34 168.078 257.462 168.078V167.578C257.064 167.578 256.742 167.901 256.742 168.299H257.242ZM257.242 170.447V168.299H256.742V170.447H257.242ZM254.841 170.697H256.992V170.197H254.841V170.697ZM254.621 170.918C254.621 170.796 254.72 170.697 254.841 170.697V170.197C254.444 170.197 254.121 170.52 254.121 170.918H254.621ZM254.621 170.972V170.918H254.121V170.972H254.621ZM254.841 171.192C254.72 171.192 254.621 171.093 254.621 170.972H254.121C254.121 171.37 254.444 171.692 254.841 171.692V171.192ZM256.992 171.192H254.841V171.692H256.992V171.192ZM257.242 173.591V171.442H256.742V173.591H257.242ZM257.462 173.811C257.34 173.811 257.242 173.712 257.242 173.591H256.742C256.742 173.989 257.064 174.311 257.462 174.311V173.811ZM257.517 173.811H257.462V174.311H257.517V173.811ZM257.737 173.591C257.737 173.712 257.639 173.811 257.517 173.811V174.311C257.915 174.311 258.237 173.989 258.237 173.591H257.737ZM257.737 171.442V173.591H258.237V171.442H257.737ZM260.138 171.192H257.987V171.692H260.138V171.192ZM260.358 170.972C260.358 171.093 260.259 171.192 260.138 171.192V171.692C260.535 171.692 260.858 171.37 260.858 170.972H260.358ZM260.358 170.918V170.972H260.858V170.918H260.358ZM260.138 170.697C260.259 170.697 260.358 170.796 260.358 170.918H260.858C260.858 170.52 260.535 170.197 260.138 170.197V170.697ZM257.987 170.697H260.138V170.197H257.987V170.697ZM257.737 168.299V170.447H258.237V168.299H257.737ZM257.517 168.078C257.639 168.078 257.737 168.177 257.737 168.299H258.237C258.237 167.901 257.915 167.578 257.517 167.578V168.078ZM257.462 168.078H257.517V167.578H257.462V168.078Z" fill="url(#paint16_linear)"/>
</g>
</g>
<g filter="url(#filter0_d)">
<path d="M240.514 131.104C240.514 126.641 244.131 123.024 248.593 123.024H316.843V139.183H248.593C244.131 139.183 240.514 135.566 240.514 131.104Z" fill="url(#paint17_linear)"/>
</g>
<path opacity="0.8" fill-rule="evenodd" clip-rule="evenodd" d="M248.87 137.513C252.451 137.513 255.354 134.622 255.354 131.055C255.354 127.489 252.451 124.598 248.87 124.598C245.289 124.598 242.387 127.489 242.387 131.055C242.387 134.622 245.289 137.513 248.87 137.513Z" fill="url(#paint18_linear)"/>
<g opacity="0.9">
<path fill-rule="evenodd" clip-rule="evenodd" d="M248.907 128.268C248.658 128.268 248.456 128.47 248.456 128.719V130.64H246.533C246.284 130.64 246.082 130.842 246.082 131.091C246.082 131.34 246.284 131.541 246.533 131.541H248.456V133.463C248.456 133.712 248.658 133.913 248.907 133.913C249.156 133.913 249.358 133.712 249.358 133.463V131.541H251.281C251.529 131.541 251.731 131.34 251.731 131.091C251.731 130.842 251.529 130.64 251.281 130.64H249.358V128.719C249.358 128.47 249.156 128.268 248.907 128.268Z" fill="white"/>
<path d="M248.456 130.64V130.89H248.706V130.64H248.456ZM248.456 131.541H248.706V131.291H248.456V131.541ZM249.358 131.541V131.291H249.108V131.541H249.358ZM249.358 130.64H249.108V130.89H249.358V130.64ZM248.706 128.719C248.706 128.608 248.796 128.518 248.907 128.518V128.018C248.519 128.018 248.206 128.332 248.206 128.719H248.706ZM248.706 130.64V128.719H248.206V130.64H248.706ZM246.533 130.89H248.456V130.39H246.533V130.89ZM246.332 131.091C246.332 130.98 246.422 130.89 246.533 130.89V130.39C246.146 130.39 245.832 130.704 245.832 131.091H246.332ZM246.533 131.291C246.422 131.291 246.332 131.201 246.332 131.091H245.832C245.832 131.478 246.146 131.791 246.533 131.791V131.291ZM248.456 131.291H246.533V131.791H248.456V131.291ZM248.706 133.463V131.541H248.206V133.463H248.706ZM248.907 133.663C248.796 133.663 248.706 133.574 248.706 133.463H248.206C248.206 133.85 248.519 134.163 248.907 134.163V133.663ZM249.108 133.463C249.108 133.574 249.018 133.663 248.907 133.663V134.163C249.294 134.163 249.608 133.85 249.608 133.463H249.108ZM249.108 131.541V133.463H249.608V131.541H249.108ZM251.281 131.291H249.358V131.791H251.281V131.291ZM251.481 131.091C251.481 131.201 251.391 131.291 251.281 131.291V131.791C251.667 131.791 251.981 131.478 251.981 131.091H251.481ZM251.281 130.89C251.391 130.89 251.481 130.98 251.481 131.091H251.981C251.981 130.704 251.667 130.39 251.281 130.39V130.89ZM249.358 130.89H251.281V130.39H249.358V130.89ZM249.108 128.719V130.64H249.608V128.719H249.108ZM248.907 128.518C249.018 128.518 249.108 128.608 249.108 128.719H249.608C249.608 128.332 249.294 128.018 248.907 128.018V128.518Z" fill="white"/>
</g>
<path opacity="0.6" fill-rule="evenodd" clip-rule="evenodd" d="M263.507 137.513C267.076 137.513 269.969 134.622 269.969 131.055C269.969 127.489 267.076 124.598 263.507 124.598C259.938 124.598 257.045 127.489 257.045 131.055C257.045 134.622 259.938 137.513 263.507 137.513Z" fill="url(#paint19_linear)"/>
<mask id="mask5" mask-type="alpha" maskUnits="userSpaceOnUse" x="257" y="124" width="13" height="14">
<path fill-rule="evenodd" clip-rule="evenodd" d="M263.507 137.513C267.076 137.513 269.969 134.622 269.969 131.055C269.969 127.489 267.076 124.598 263.507 124.598C259.938 124.598 257.045 127.489 257.045 131.055C257.045 134.622 259.938 137.513 263.507 137.513Z" fill="white"/>
</mask>
<g mask="url(#mask5)">
<path opacity="0.7" fill-rule="evenodd" clip-rule="evenodd" d="M260.152 135.116C260.152 133.243 261.67 131.726 263.542 131.726C265.414 131.726 266.932 133.243 266.932 135.116V139.277H260.152V135.116Z" fill="white"/>
<path fill-rule="evenodd" clip-rule="evenodd" d="M263.507 132.925C264.931 132.925 266.085 131.772 266.085 130.35C266.085 128.927 264.931 127.774 263.507 127.774C262.084 127.774 260.93 128.927 260.93 130.35C260.93 131.772 262.084 132.925 263.507 132.925Z" fill="white"/>
</g>
<path opacity="0.6" fill-rule="evenodd" clip-rule="evenodd" d="M278.071 137.513C281.64 137.513 284.533 134.622 284.533 131.055C284.533 127.489 281.64 124.598 278.071 124.598C274.502 124.598 271.609 127.489 271.609 131.055C271.609 134.622 274.502 137.513 278.071 137.513Z" fill="url(#paint20_linear)"/>
<mask id="mask6" mask-type="alpha" maskUnits="userSpaceOnUse" x="271" y="124" width="14" height="14">
<path fill-rule="evenodd" clip-rule="evenodd" d="M278.071 137.513C281.64 137.513 284.533 134.622 284.533 131.055C284.533 127.489 281.64 124.598 278.071 124.598C274.502 124.598 271.609 127.489 271.609 131.055C271.609 134.622 274.502 137.513 278.071 137.513Z" fill="white"/>
</mask>
<g mask="url(#mask6)">
<path opacity="0.7" fill-rule="evenodd" clip-rule="evenodd" d="M274.717 135.116C274.717 133.243 276.234 131.726 278.107 131.726C279.979 131.726 281.496 133.243 281.496 135.116V139.277H274.717V135.116Z" fill="white"/>
<path fill-rule="evenodd" clip-rule="evenodd" d="M278.072 132.784C279.456 132.784 280.579 131.663 280.579 130.279C280.579 128.895 279.456 127.774 278.072 127.774C276.687 127.774 275.564 128.895 275.564 130.279C275.564 131.663 276.687 132.784 278.072 132.784Z" fill="white"/>
</g>
<g opacity="0.6">
<path opacity="0.6" fill-rule="evenodd" clip-rule="evenodd" d="M307.259 137.513C310.828 137.513 313.721 134.622 313.721 131.055C313.721 127.489 310.828 124.598 307.259 124.598C303.69 124.598 300.797 127.489 300.797 131.055C300.797 134.622 303.69 137.513 307.259 137.513Z" fill="url(#paint21_linear)"/>
<mask id="mask7" mask-type="alpha" maskUnits="userSpaceOnUse" x="300" y="124" width="14" height="14">
<path fill-rule="evenodd" clip-rule="evenodd" d="M307.259 137.513C310.828 137.513 313.721 134.622 313.721 131.055C313.721 127.489 310.828 124.598 307.259 124.598C303.69 124.598 300.797 127.489 300.797 131.055C300.797 134.622 303.69 137.513 307.259 137.513Z" fill="white"/>
</mask>
<g mask="url(#mask7)">
<path opacity="0.7" fill-rule="evenodd" clip-rule="evenodd" d="M303.904 135.116C303.904 133.243 305.422 131.726 307.294 131.726C309.166 131.726 310.684 133.243 310.684 135.116V139.277H303.904V135.116Z" fill="white"/>
<path fill-rule="evenodd" clip-rule="evenodd" d="M307.259 132.784C308.644 132.784 309.766 131.663 309.766 130.279C309.766 128.895 308.644 127.774 307.259 127.774C305.874 127.774 304.752 128.895 304.752 130.279C304.752 131.663 305.874 132.784 307.259 132.784Z" fill="white"/>
</g>
</g>
<g opacity="0.2">
<path fill-rule="evenodd" clip-rule="evenodd" d="M292.637 137.513C296.208 137.513 299.102 134.622 299.102 131.055C299.102 127.489 296.208 124.598 292.637 124.598C289.066 124.598 286.172 127.489 286.172 131.055C286.172 134.622 289.066 137.513 292.637 137.513Z" fill="url(#paint22_radial)" fill-opacity="0.84"/>
<path fill-rule="evenodd" clip-rule="evenodd" d="M292.637 137.513C296.208 137.513 299.102 134.622 299.102 131.055C299.102 127.489 296.208 124.598 292.637 124.598C289.066 124.598 286.172 127.489 286.172 131.055C286.172 134.622 289.066 137.513 292.637 137.513Z" style="mix-blend-mode:overlay"/>
</g>
<mask id="mask8" mask-type="alpha" maskUnits="userSpaceOnUse" x="286" y="124" width="14" height="14">
<path fill-rule="evenodd" clip-rule="evenodd" d="M292.637 137.513C296.208 137.513 299.102 134.622 299.102 131.055C299.102 127.489 296.208 124.598 292.637 124.598C289.066 124.598 286.172 127.489 286.172 131.055C286.172 134.622 289.066 137.513 292.637 137.513Z" fill="white"/>
<path fill-rule="evenodd" clip-rule="evenodd" d="M292.637 137.513C296.208 137.513 299.102 134.622 299.102 131.055C299.102 127.489 296.208 124.598 292.637 124.598C289.066 124.598 286.172 127.489 286.172 131.055C286.172 134.622 289.066 137.513 292.637 137.513Z" stroke="white"/>
</mask>
<g mask="url(#mask8)">
</g>
<path opacity="0.5" d="M291.698 131.525C293.898 132.91 301.742 141.187 298.404 146.164C295.067 151.14 292.009 154.778 281.51 148.996C271.01 143.213 257.266 155.032 257.266 166.466" stroke="url(#paint23_linear)" stroke-width="1.47" stroke-linecap="round" stroke-linejoin="round" stroke-dasharray="1.15 3.88"/>
<g filter="url(#filter1_d)">
<path fill-rule="evenodd" clip-rule="evenodd" d="M271.489 160.988C276.709 160.988 280.941 156.759 280.941 151.543C280.941 146.327 276.709 142.098 271.489 142.098C266.269 142.098 262.037 146.327 262.037 151.543C262.037 156.759 266.269 160.988 271.489 160.988Z" fill="url(#paint24_linear)"/>
<mask id="mask9" mask-type="alpha" maskUnits="userSpaceOnUse" x="262" y="142" width="19" height="19">
<path fill-rule="evenodd" clip-rule="evenodd" d="M271.489 160.988C276.709 160.988 280.941 156.759 280.941 151.543C280.941 146.327 276.709 142.098 271.489 142.098C266.269 142.098 262.037 146.327 262.037 151.543C262.037 156.759 266.269 160.988 271.489 160.988Z" fill="white"/>
</mask>
<g mask="url(#mask9)">
<path opacity="0.7" fill-rule="evenodd" clip-rule="evenodd" d="M266.57 157.474C266.57 154.731 268.794 152.507 271.537 152.507C274.28 152.507 276.504 154.731 276.504 157.474V163.59H266.57V157.474Z" fill="white"/>
<path fill-rule="evenodd" clip-rule="evenodd" d="M271.489 154.049C273.513 154.049 275.154 152.409 275.154 150.386C275.154 148.364 273.513 146.724 271.489 146.724C269.465 146.724 267.824 148.364 267.824 150.386C267.824 152.409 269.465 154.049 271.489 154.049Z" fill="white"/>
</g>
</g>
<path fill-rule="evenodd" clip-rule="evenodd" d="M281.941 201.096C279.127 193.49 271.391 168.44 268.616 159.401C268.06 157.591 269.096 155.681 270.915 155.153C272.441 154.71 274.071 155.385 274.837 156.776L285.557 176.241C285.826 171.084 292.315 168.978 295.561 172.994L298.186 176.241C300.093 173.605 303.831 172.952 306.124 175.26C307.223 176.367 308.161 177.538 308.423 178.507C308.423 178.116 308.491 177.749 308.608 177.408C309.552 174.65 313.404 175.144 315.42 177.25C316.447 178.322 317.426 179.581 317.928 180.865C321.257 189.364 322.717 201.096 322.717 201.096V227.235L294.015 232.512L287.879 224.949C287.879 224.949 277.748 215.871 273.526 209.188C271.243 204.87 267.202 193.998 265.488 189.294C265.006 187.972 265.466 186.5 266.604 185.673C268.022 184.644 270.002 184.954 271.033 186.371C274.124 190.621 280.155 198.878 281.941 201.096Z" fill="url(#paint25_linear)"/>
<path fill-rule="evenodd" clip-rule="evenodd" d="M281.941 201.096C279.127 193.49 271.391 168.44 268.616 159.401C268.06 157.591 269.096 155.681 270.915 155.153C272.441 154.71 274.071 155.385 274.837 156.776L285.557 176.241C285.826 171.084 292.315 168.978 295.561 172.994L298.186 176.241C300.093 173.605 303.831 172.952 306.124 175.26C307.223 176.367 308.161 177.538 308.423 178.507C308.423 178.116 308.491 177.749 308.608 177.408C309.552 174.65 313.404 175.144 315.42 177.25C316.447 178.322 317.426 179.581 317.928 180.865C321.257 189.364 322.717 201.096 322.717 201.096V227.235L294.015 232.512L287.879 224.949C287.879 224.949 277.748 215.871 273.526 209.188C271.243 204.87 267.202 193.998 265.488 189.294C265.006 187.972 265.466 186.5 266.604 185.673C268.022 184.644 270.002 184.954 271.033 186.371C274.124 190.621 280.155 198.878 281.941 201.096Z" fill="url(#paint26_linear)" fill-opacity="0.69"/>
<mask id="mask10" mask-type="alpha" maskUnits="userSpaceOnUse" x="265" y="155" width="58" height="78">
<path fill-rule="evenodd" clip-rule="evenodd" d="M281.941 201.096C279.127 193.49 271.391 168.44 268.616 159.401C268.06 157.591 269.096 155.681 270.915 155.153C272.441 154.71 274.071 155.385 274.837 156.776L285.557 176.241C285.826 171.084 292.315 168.978 295.561 172.994L298.186 176.241C300.093 173.605 303.831 172.952 306.124 175.26C307.223 176.367 308.161 177.538 308.423 178.507C308.423 178.116 308.491 177.749 308.608 177.408C309.552 174.65 313.404 175.144 315.42 177.25C316.447 178.322 317.426 179.581 317.928 180.865C321.257 189.364 322.717 201.096 322.717 201.096V227.235L294.015 232.512L287.879 224.949C287.879 224.949 277.748 215.871 273.526 209.188C271.243 204.87 267.202 193.998 265.488 189.294C265.006 187.972 265.466 186.5 266.604 185.673C268.022 184.644 270.002 184.954 271.033 186.371C274.124 190.621 280.155 198.878 281.941 201.096Z" fill="white"/>
<path fill-rule="evenodd" clip-rule="evenodd" d="M281.941 201.096C279.127 193.49 271.391 168.44 268.616 159.401C268.06 157.591 269.096 155.681 270.915 155.153C272.441 154.71 274.071 155.385 274.837 156.776L285.557 176.241C285.826 171.084 292.315 168.978 295.561 172.994L298.186 176.241C300.093 173.605 303.831 172.952 306.124 175.26C307.223 176.367 308.161 177.538 308.423 178.507C308.423 178.116 308.491 177.749 308.608 177.408C309.552 174.65 313.404 175.144 315.42 177.25C316.447 178.322 317.426 179.581 317.928 180.865C321.257 189.364 322.717 201.096 322.717 201.096V227.235L294.015 232.512L287.879 224.949C287.879 224.949 277.748 215.871 273.526 209.188C271.243 204.87 267.202 193.998 265.488 189.294C265.006 187.972 265.466 186.5 266.604 185.673C268.022 184.644 270.002 184.954 271.033 186.371C274.124 190.621 280.155 198.878 281.941 201.096Z" stroke="white"/>
</mask>
<g mask="url(#mask10)">
<g opacity="0.616908">
<path fill-rule="evenodd" clip-rule="evenodd" d="M284.358 205.321C283.098 205.321 280.954 205.137 278.842 201.741C276.731 198.344 272.365 188.733 272.365 187.829C272.365 186.926 279.501 197.366 279.501 197.366C279.501 197.366 283.54 203.002 284.358 205.321Z" fill="url(#paint27_linear)" style="mix-blend-mode:multiply"/>
</g>
<path fill-rule="evenodd" clip-rule="evenodd" d="M290.276 185.704C290.276 183.676 288.224 172.892 287.021 171.842C285.819 170.793 285.162 174.81 285.162 174.81C285.162 174.81 289.778 184.901 290.276 185.704Z" fill="url(#paint28_linear)" style="mix-blend-mode:multiply"/>
<path fill-rule="evenodd" clip-rule="evenodd" d="M300.959 182.025C300.959 181.249 300.667 174.744 299.443 173.606C298.22 172.468 297.785 175.196 297.785 175.196C297.785 175.196 299.665 178.726 300.167 179.931C300.824 181.507 300.959 182.318 300.959 182.025Z" fill="url(#paint29_linear)" style="mix-blend-mode:multiply"/>
<path fill-rule="evenodd" clip-rule="evenodd" d="M309.462 180.546C309.462 180.082 309.693 177.901 309.072 176.549C308.452 175.198 308.26 177.615 308.26 177.615C308.26 177.615 309.462 181.01 309.462 180.546Z" fill="url(#paint30_linear)" style="mix-blend-mode:multiply"/>
<g opacity="0.843471">
<path fill-rule="evenodd" clip-rule="evenodd" d="M284.593 205.275C283.723 202.145 280.307 188.753 275.797 182.031C271.287 175.309 280.833 199.421 280.833 199.421C280.833 199.421 283.743 203.769 284.593 205.275Z" fill="url(#paint31_linear)" style="mix-blend-mode:multiply"/>
</g>
<path d="M285.418 175.588C285.418 175.588 288.818 182.292 290.072 185.614" stroke="url(#paint32_linear)" stroke-width="0.5" stroke-linecap="round"/>
<path d="M297.527 174.913C297.527 174.913 299.968 178.906 300.815 181.843" stroke="url(#paint33_linear)" stroke-width="0.5" stroke-linecap="round"/>
<path d="M305.994 173.487C305.994 173.487 308.435 177.48 309.282 180.417" stroke="url(#paint34_linear)" stroke-width="0.5" stroke-linecap="round"/>
<path fill-rule="evenodd" clip-rule="evenodd" d="M269.877 161.141C269.143 158.931 268.627 158.204 268.627 157.348C268.627 156.491 268.704 155.316 270.035 154.675C271.367 154.035 272.889 154.848 273.407 155.737C273.924 156.626 274.979 158.27 274.979 159.164C274.979 160.844 271.003 162.675 269.877 161.141Z" fill="url(#paint35_linear)"/>
<path d="M281.164 199.823C281.735 200.788 283.623 203.571 284.371 205.136" stroke="url(#paint36_linear)" stroke-width="0.5" stroke-linecap="round"/>
<g opacity="0.385993">
<path fill-rule="evenodd" clip-rule="evenodd" d="M270.271 163.068C270.819 165.11 272.4 170.478 273.005 171.295C273.61 172.112 275.196 172.908 277.544 171.969C279.892 171.031 280.717 169.338 280.318 168.533C279.918 167.727 276.49 160.49 276.49 160.49" fill="url(#paint37_linear)" style="mix-blend-mode:multiply"/>
</g>
</g>
<path fill-rule="evenodd" clip-rule="evenodd" d="M266.75 192.667C267.977 192.839 269.727 191.756 269.827 191.04C269.928 190.324 268.443 186.897 267.99 186.173C267.538 185.45 264.766 186.173 265.097 187.797C265.427 189.422 265.975 190.715 266.75 192.667Z" fill="url(#paint38_linear)"/>
</g>
<path fill-rule="evenodd" clip-rule="evenodd" d="M137.487 98.2269H142.881C144.536 98.2269 145.877 99.5677 145.877 101.222C145.877 102.876 144.536 104.216 142.881 104.216H137.487C135.832 104.216 134.49 102.876 134.49 101.222C134.49 99.5677 135.832 98.2269 137.487 98.2269Z" fill="#403F9F"/>
<path fill-rule="evenodd" clip-rule="evenodd" d="M137.487 98.2269H142.881C144.536 98.2269 145.877 99.5677 145.877 101.222C145.877 102.876 144.536 104.216 142.881 104.216H137.487C135.832 104.216 134.49 102.876 134.49 101.222C134.49 99.5677 135.832 98.2269 137.487 98.2269Z" fill="url(#paint39_linear)"/>
<path fill-rule="evenodd" clip-rule="evenodd" d="M140.184 98.227C144.156 98.227 147.376 95.0091 147.376 91.0396C147.376 87.0702 144.156 83.8523 140.184 83.8523C136.212 83.8523 132.992 87.0702 132.992 91.0396C132.992 95.0091 136.212 98.227 140.184 98.227Z" fill="#403F9F"/>
<path fill-rule="evenodd" clip-rule="evenodd" d="M140.184 98.227C144.156 98.227 147.376 95.0091 147.376 91.0396C147.376 87.0702 144.156 83.8523 140.184 83.8523C136.212 83.8523 132.992 87.0702 132.992 91.0396C132.992 95.0091 136.212 98.227 140.184 98.227Z" fill="url(#paint40_linear)"/>
<path fill-rule="evenodd" clip-rule="evenodd" d="M137.487 77.8628H142.881C144.536 77.8628 145.877 79.2036 145.877 80.8575C145.877 82.5115 144.536 83.8522 142.881 83.8522H137.487C135.832 83.8522 134.49 82.5115 134.49 80.8575C134.49 79.2036 135.832 77.8628 137.487 77.8628Z" fill="#403F9F"/>
<path fill-rule="evenodd" clip-rule="evenodd" d="M137.487 77.8628H142.881C144.536 77.8628 145.877 79.2036 145.877 80.8575C145.877 82.5115 144.536 83.8522 142.881 83.8522H137.487C135.832 83.8522 134.49 82.5115 134.49 80.8575C134.49 79.2036 135.832 77.8628 137.487 77.8628Z" fill="url(#paint41_linear)"/>
<rect x="137.787" y="14.9736" width="4.79452" height="152.132" fill="#403F9F"/>
<rect x="137.787" y="14.9736" width="4.79452" height="152.132" fill="url(#paint42_linear)"/>
<path fill-rule="evenodd" clip-rule="evenodd" d="M197.719 98.2269H203.113C204.768 98.2269 206.11 99.5677 206.11 101.222C206.11 102.876 204.768 104.216 203.113 104.216H197.719C196.064 104.216 194.723 102.876 194.723 101.222C194.723 99.5677 196.064 98.2269 197.719 98.2269Z" fill="#403F9F"/>
<path fill-rule="evenodd" clip-rule="evenodd" d="M197.719 98.2269H203.113C204.768 98.2269 206.11 99.5677 206.11 101.222C206.11 102.876 204.768 104.216 203.113 104.216H197.719C196.064 104.216 194.723 102.876 194.723 101.222C194.723 99.5677 196.064 98.2269 197.719 98.2269Z" fill="url(#paint43_linear)"/>
<path fill-rule="evenodd" clip-rule="evenodd" d="M200.416 98.227C204.388 98.227 207.608 95.0091 207.608 91.0396C207.608 87.0702 204.388 83.8523 200.416 83.8523C196.444 83.8523 193.225 87.0702 193.225 91.0396C193.225 95.0091 196.444 98.227 200.416 98.227Z" fill="#403F9F"/>
<path fill-rule="evenodd" clip-rule="evenodd" d="M200.416 98.227C204.388 98.227 207.608 95.0091 207.608 91.0396C207.608 87.0702 204.388 83.8523 200.416 83.8523C196.444 83.8523 193.225 87.0702 193.225 91.0396C193.225 95.0091 196.444 98.227 200.416 98.227Z" fill="url(#paint44_linear)"/>
<path fill-rule="evenodd" clip-rule="evenodd" d="M197.719 77.8628H203.113C204.768 77.8628 206.11 79.2036 206.11 80.8575C206.11 82.5115 204.768 83.8522 203.113 83.8522H197.719C196.064 83.8522 194.723 82.5115 194.723 80.8575C194.723 79.2036 196.064 77.8628 197.719 77.8628Z" fill="#403F9F"/>
<path fill-rule="evenodd" clip-rule="evenodd" d="M197.719 77.8628H203.113C204.768 77.8628 206.11 79.2036 206.11 80.8575C206.11 82.5115 204.768 83.8522 203.113 83.8522H197.719C196.064 83.8522 194.723 82.5115 194.723 80.8575C194.723 79.2036 196.064 77.8628 197.719 77.8628Z" fill="url(#paint45_linear)"/>
<rect x="198.02" y="14.9736" width="4.79452" height="152.132" fill="#403F9F"/>
<rect x="198.02" y="14.9736" width="4.79452" height="152.132" fill="url(#paint46_linear)"/>
<path fill-rule="evenodd" clip-rule="evenodd" d="M147.977 14.9736H213.901V55.902C213.901 63.174 209.495 69.7291 202.74 72.5073C192.119 76.8753 186.809 82.5261 186.809 89.4596C186.809 96.6615 192.538 103.148 203.997 108.918C210.072 111.977 213.901 118.176 213.901 124.949V167.106H147.977L147.977 124.797C147.977 118.078 151.745 111.92 157.745 108.835C169.294 102.896 175.069 96.438 175.069 89.4596C175.069 82.7393 169.713 77.1258 159.003 72.6192C152.319 69.8072 147.977 63.2892 147.977 56.0701L147.977 14.9736Z" fill="#F2F5F9"/>
<path fill-rule="evenodd" clip-rule="evenodd" d="M147.977 14.9736H213.901V55.902C213.901 63.174 209.495 69.7291 202.74 72.5073C192.119 76.8753 186.809 82.5261 186.809 89.4596C186.809 96.6615 192.538 103.148 203.997 108.918C210.072 111.977 213.901 118.176 213.901 124.949V167.106H147.977L147.977 124.797C147.977 118.078 151.745 111.92 157.745 108.835C169.294 102.896 175.069 96.438 175.069 89.4596C175.069 82.7393 169.713 77.1258 159.003 72.6192C152.319 69.8072 147.977 63.2892 147.977 56.0701L147.977 14.9736Z" fill="url(#paint47_linear)"/>
<path fill-rule="evenodd" clip-rule="evenodd" d="M203.769 145.638C209.91 152.214 210.904 156.775 210.904 164.111H150.973C150.973 157.173 151.909 152.293 157.985 145.638C162.372 140.832 178.68 129.931 178.68 123.077C178.68 116.222 178.614 86.7293 178.614 86.4997C178.614 80.0473 170.733 74.6577 160.996 70.3308C154.921 67.6309 150.973 61.3728 150.973 54.4416C150.973 48.0368 150.973 43.2651 150.973 40.1263C150.973 40.1208 156.949 34.4393 165.956 34.4393C170.629 34.4393 175.728 37.9925 180.938 41.3272C185.768 44.4185 190.831 47.3098 195.921 47.3098C206.502 47.3098 210.904 40.0959 210.904 40.1263C210.904 43.2169 210.904 47.9349 210.904 54.2802C210.904 61.2622 206.899 67.5559 200.758 70.2234C191.102 74.4172 183.263 79.8426 183.263 86.4997C183.263 86.7293 183.131 116.222 183.197 123.077C183.263 129.931 199.432 140.994 203.769 145.638Z" fill="#E2628C"/>
<path fill-rule="evenodd" clip-rule="evenodd" d="M203.769 145.638C209.91 152.214 210.904 156.775 210.904 164.111H150.973C150.973 157.173 151.909 152.293 157.985 145.638C162.372 140.832 178.68 129.931 178.68 123.077C178.68 116.222 178.614 86.7293 178.614 86.4997C178.614 80.0473 170.733 74.6577 160.996 70.3308C154.921 67.6309 150.973 61.3728 150.973 54.4416C150.973 48.0368 150.973 43.2651 150.973 40.1263C150.973 40.1208 156.949 34.4393 165.956 34.4393C170.629 34.4393 175.728 37.9925 180.938 41.3272C185.768 44.4185 190.831 47.3098 195.921 47.3098C206.502 47.3098 210.904 40.0959 210.904 40.1263C210.904 43.2169 210.904 47.9349 210.904 54.2802C210.904 61.2622 206.899 67.5559 200.758 70.2234C191.102 74.4172 183.263 79.8426 183.263 86.4997C183.263 86.7293 183.131 116.222 183.197 123.077C183.263 129.931 199.432 140.994 203.769 145.638Z" fill="url(#paint48_linear)"/>
<rect opacity="0.3" x="153.969" y="24.8562" width="7.19178" height="20.9631" rx="3.59589" fill="white"/>
<path fill-rule="evenodd" clip-rule="evenodd" d="M158.764 98.2269H164.158C165.813 98.2269 167.155 99.5677 167.155 101.222C167.155 102.876 165.813 104.216 164.158 104.216H158.764C157.109 104.216 155.768 102.876 155.768 101.222C155.768 99.5677 157.109 98.2269 158.764 98.2269Z" fill="#403F9F"/>
<path fill-rule="evenodd" clip-rule="evenodd" d="M158.764 98.2269H164.158C165.813 98.2269 167.155 99.5677 167.155 101.222C167.155 102.876 165.813 104.216 164.158 104.216H158.764C157.109 104.216 155.768 102.876 155.768 101.222C155.768 99.5677 157.109 98.2269 158.764 98.2269Z" fill="url(#paint49_linear)"/>
<path fill-rule="evenodd" clip-rule="evenodd" d="M161.461 98.227C165.433 98.227 168.653 95.0091 168.653 91.0396C168.653 87.0702 165.433 83.8523 161.461 83.8523C157.489 83.8523 154.27 87.0702 154.27 91.0396C154.27 95.0091 157.489 98.227 161.461 98.227Z" fill="#403F9F"/>
<path fill-rule="evenodd" clip-rule="evenodd" d="M161.461 98.227C165.433 98.227 168.653 95.0091 168.653 91.0396C168.653 87.0702 165.433 83.8523 161.461 83.8523C157.489 83.8523 154.27 87.0702 154.27 91.0396C154.27 95.0091 157.489 98.227 161.461 98.227Z" fill="url(#paint50_linear)"/>
<path fill-rule="evenodd" clip-rule="evenodd" d="M158.764 77.8628H164.158C165.813 77.8628 167.155 79.2036 167.155 80.8575C167.155 82.5115 165.813 83.8522 164.158 83.8522H158.764C157.109 83.8522 155.768 82.5115 155.768 80.8575C155.768 79.2036 157.109 77.8628 158.764 77.8628Z" fill="#403F9F"/>
<path fill-rule="evenodd" clip-rule="evenodd" d="M158.764 77.8628H164.158C165.813 77.8628 167.155 79.2036 167.155 80.8575C167.155 82.5115 165.813 83.8522 164.158 83.8522H158.764C157.109 83.8522 155.768 82.5115 155.768 80.8575C155.768 79.2036 157.109 77.8628 158.764 77.8628Z" fill="url(#paint51_linear)"/>
<rect x="159.064" y="14.9736" width="4.79452" height="152.132" fill="#403F9F"/>
<rect x="159.064" y="14.9736" width="4.79452" height="152.132" fill="url(#paint52_linear)"/>
<rect opacity="0.3" x="153.969" y="48.814" width="7.19178" height="7.18734" rx="3.59367" fill="white"/>
<path fill-rule="evenodd" clip-rule="evenodd" d="M195.92 34.4393C204.927 34.4393 210.903 40.1238 210.903 40.1293C210.903 40.0989 206.501 47.3166 195.92 47.3166C190.83 47.3166 185.768 44.4161 180.938 41.3272C186.148 37.9951 191.247 34.4393 195.92 34.4393Z" fill="#C74D75"/>
<path fill-rule="evenodd" clip-rule="evenodd" d="M134.491 167.106H227.385C231.523 167.106 234.877 170.457 234.877 174.592C234.877 178.727 231.523 182.079 227.385 182.079H134.491C130.354 182.079 127 178.727 127 174.592C127 170.457 130.354 167.106 134.491 167.106Z" fill="#403F9F"/>
<path fill-rule="evenodd" clip-rule="evenodd" d="M134.491 167.106H227.385C231.523 167.106 234.877 170.457 234.877 174.592C234.877 178.727 231.523 182.079 227.385 182.079H134.491C130.354 182.079 127 178.727 127 174.592C127 170.457 130.354 167.106 134.491 167.106Z" fill="url(#paint53_linear)"/>
<path fill-rule="evenodd" clip-rule="evenodd" d="M218.995 98.2269H224.388C226.043 98.2269 227.385 99.5677 227.385 101.222C227.385 102.876 226.043 104.216 224.388 104.216H218.995C217.34 104.216 215.998 102.876 215.998 101.222C215.998 99.5677 217.34 98.2269 218.995 98.2269Z" fill="#403F9F"/>
<path fill-rule="evenodd" clip-rule="evenodd" d="M218.995 98.2269H224.388C226.043 98.2269 227.385 99.5677 227.385 101.222C227.385 102.876 226.043 104.216 224.388 104.216H218.995C217.34 104.216 215.998 102.876 215.998 101.222C215.998 99.5677 217.34 98.2269 218.995 98.2269Z" fill="url(#paint54_linear)"/>
<path fill-rule="evenodd" clip-rule="evenodd" d="M221.692 98.227C225.664 98.227 228.884 95.0091 228.884 91.0396C228.884 87.0702 225.664 83.8523 221.692 83.8523C217.72 83.8523 214.5 87.0702 214.5 91.0396C214.5 95.0091 217.72 98.227 221.692 98.227Z" fill="#403F9F"/>
<path fill-rule="evenodd" clip-rule="evenodd" d="M221.692 98.227C225.664 98.227 228.884 95.0091 228.884 91.0396C228.884 87.0702 225.664 83.8523 221.692 83.8523C217.72 83.8523 214.5 87.0702 214.5 91.0396C214.5 95.0091 217.72 98.227 221.692 98.227Z" fill="url(#paint55_linear)"/>
<path fill-rule="evenodd" clip-rule="evenodd" d="M218.995 77.8628H224.388C226.043 77.8628 227.385 79.2036 227.385 80.8575C227.385 82.5115 226.043 83.8522 224.388 83.8522H218.995C217.34 83.8522 215.998 82.5115 215.998 80.8575C215.998 79.2036 217.34 77.8628 218.995 77.8628Z" fill="#403F9F"/>
<path fill-rule="evenodd" clip-rule="evenodd" d="M218.995 77.8628H224.388C226.043 77.8628 227.385 79.2036 227.385 80.8575C227.385 82.5115 226.043 83.8522 224.388 83.8522H218.995C217.34 83.8522 215.998 82.5115 215.998 80.8575C215.998 79.2036 217.34 77.8628 218.995 77.8628Z" fill="url(#paint56_linear)"/>
<rect x="219.295" y="14.9736" width="4.79452" height="152.132" fill="#403F9F"/>
<rect x="219.295" y="14.9736" width="4.79452" height="152.132" fill="url(#paint57_linear)"/>
<path fill-rule="evenodd" clip-rule="evenodd" d="M134.491 0H227.385C231.523 0 234.877 3.35196 234.877 7.48681C234.877 11.6217 231.523 14.9736 227.385 14.9736H134.491C130.354 14.9736 127 11.6217 127 7.48681C127 3.35196 130.354 0 134.491 0Z" fill="#403F9F"/>
<path fill-rule="evenodd" clip-rule="evenodd" d="M134.491 0H227.385C231.523 0 234.877 3.35196 234.877 7.48681C234.877 11.6217 231.523 14.9736 227.385 14.9736H134.491C130.354 14.9736 127 11.6217 127 7.48681C127 3.35196 130.354 0 134.491 0Z" fill="url(#paint58_linear)"/>
<defs>
<filter id="filter0_d" x="232.514" y="122.024" width="84.3291" height="24.1587" filterUnits="userSpaceOnUse" color-interpolation-filters="sRGB">
<feFlood flood-opacity="0" result="BackgroundImageFix"/>
<feColorMatrix in="SourceAlpha" type="matrix" values="0 0 0 0 0 0 0 0 0 0 0 0 0 0 0 0 0 0 127 0"/>
<feOffset dx="-4" dy="3"/>
<feGaussianBlur stdDeviation="2"/>
<feColorMatrix type="matrix" values="0 0 0 0 0.831373 0 0 0 0 0.882353 0 0 0 0 0.972549 0 0 0 0.427253 0"/>
<feBlend mode="normal" in2="BackgroundImageFix" result="effect1_dropShadow"/>
<feBlend mode="normal" in="SourceGraphic" in2="effect1_dropShadow" result="shape"/>
</filter>
<filter id="filter1_d" x="262.037" y="142.098" width="22.9034" height="22.8897" filterUnits="userSpaceOnUse" color-interpolation-filters="sRGB">
<feFlood flood-opacity="0" result="BackgroundImageFix"/>
<feColorMatrix in="SourceAlpha" type="matrix" values="0 0 0 0 0 0 0 0 0 0 0 0 0 0 0 0 0 0 127 0"/>
<feOffset dx="4" dy="4"/>
<feColorMatrix type="matrix" values="0 0 0 0 0.70262 0 0 0 0 0.555578 0 0 0 0 0.423155 0 0 0 0.320143 0"/>
<feBlend mode="normal" in2="BackgroundImageFix" result="effect1_dropShadow"/>
<feBlend mode="normal" in="SourceGraphic" in2="effect1_dropShadow" result="shape"/>
</filter>
<linearGradient id="paint0_linear" x1="312.591" y1="140.745" x2="296.294" y2="159.79" gradientUnits="userSpaceOnUse">
<stop stop-color="#F1F5FB"/>
<stop offset="1" stop-color="white"/>
</linearGradient>
<linearGradient id="paint1_linear" x1="233.953" y1="154.612" x2="220.495" y2="168.846" gradientUnits="userSpaceOnUse">
<stop stop-color="#CFDDF3"/>
<stop offset="1" stop-color="#A1B8E3"/>
</linearGradient>
<linearGradient id="paint2_linear" x1="229.613" y1="170.914" x2="233.037" y2="178.258" gradientUnits="userSpaceOnUse">
<stop stop-color="#CFDDF3"/>
<stop offset="1" stop-color="#A1B8E3"/>
</linearGradient>
<linearGradient id="paint3_linear" x1="230.291" y1="165.512" x2="232.341" y2="169.908" gradientUnits="userSpaceOnUse">
<stop stop-color="#CFDDF3"/>
<stop offset="1" stop-color="#A1B8E3"/>
</linearGradient>
<linearGradient id="paint4_linear" x1="228.67" y1="156.996" x2="243.493" y2="188.784" gradientUnits="userSpaceOnUse">
<stop stop-color="#CFDDF3"/>
<stop offset="1" stop-color="#A1B8E3"/>
</linearGradient>
<linearGradient id="paint5_linear" x1="298.899" y1="137.072" x2="277.036" y2="151.895" gradientUnits="userSpaceOnUse">
<stop stop-color="#47689B"/>
<stop offset="1" stop-color="#223762"/>
</linearGradient>
<linearGradient id="paint6_linear" x1="266.747" y1="108.478" x2="188.989" y2="142.459" gradientUnits="userSpaceOnUse">
<stop stop-color="#47689B"/>
<stop offset="1" stop-color="#223762"/>
</linearGradient>
<linearGradient id="paint7_linear" x1="250.087" y1="153.276" x2="288.461" y2="153.276" gradientUnits="userSpaceOnUse">
<stop stop-color="#365383"/>
<stop offset="1" stop-color="#1C2C4C"/>
</linearGradient>
<linearGradient id="paint8_linear" x1="247.817" y1="179.422" x2="228.058" y2="201.391" gradientUnits="userSpaceOnUse">
<stop stop-color="white"/>
<stop offset="1" stop-color="#EEF2F9"/>
</linearGradient>
<linearGradient id="paint9_linear" x1="327.954" y1="204.503" x2="327.822" y2="197.207" gradientUnits="userSpaceOnUse">
<stop stop-color="#CBDAF1"/>
<stop offset="1" stop-color="#7089B9"/>
</linearGradient>
<linearGradient id="paint10_linear" x1="303.253" y1="208.385" x2="303.071" y2="201.092" gradientUnits="userSpaceOnUse">
<stop stop-color="#CBDAF1"/>
<stop offset="1" stop-color="#7089B9"/>
</linearGradient>
<linearGradient id="paint11_linear" x1="325.157" y1="216.254" x2="325.021" y2="208.959" gradientUnits="userSpaceOnUse">
<stop stop-color="#CBDAF1"/>
<stop offset="1" stop-color="#7089B9"/>
</linearGradient>
<linearGradient id="paint12_linear" x1="244.244" y1="162.107" x2="235.288" y2="173.709" gradientUnits="userSpaceOnUse">
<stop stop-color="#CBDAF1"/>
<stop offset="1" stop-color="#7089B9"/>
</linearGradient>
<linearGradient id="paint13_linear" x1="244.244" y1="176.591" x2="235.288" y2="188.193" gradientUnits="userSpaceOnUse">
<stop stop-color="#CBDAF1"/>
<stop offset="1" stop-color="#7089B9"/>
</linearGradient>
<linearGradient id="paint14_linear" x1="255.699" y1="176.591" x2="246.743" y2="188.193" gradientUnits="userSpaceOnUse">
<stop stop-color="#CBDAF1"/>
<stop offset="1" stop-color="#7089B9"/>
</linearGradient>
<linearGradient id="paint15_linear" x1="257.49" y1="165.947" x2="253.728" y2="172.182" gradientUnits="userSpaceOnUse">
<stop stop-color="#CBDAF1"/>
<stop offset="1" stop-color="#7089B9"/>
</linearGradient>
<linearGradient id="paint16_linear" x1="257.49" y1="165.947" x2="253.728" y2="172.182" gradientUnits="userSpaceOnUse">
<stop stop-color="#CBDAF1"/>
<stop offset="1" stop-color="#7089B9"/>
</linearGradient>
<linearGradient id="paint17_linear" x1="424.071" y1="160.615" x2="425.976" y2="113.627" gradientUnits="userSpaceOnUse">
<stop stop-color="white"/>
<stop offset="1" stop-color="#D4E1F8" stop-opacity="0.01"/>
</linearGradient>
<linearGradient id="paint18_linear" x1="248.297" y1="106.484" x2="229.859" y2="131.704" gradientUnits="userSpaceOnUse">
<stop stop-color="#DDFFB1"/>
<stop offset="0.533766" stop-color="#5CDB8E"/>
<stop offset="1" stop-color="#19AC61"/>
</linearGradient>
<linearGradient id="paint19_linear" x1="263.214" y1="122.857" x2="256.516" y2="134.167" gradientUnits="userSpaceOnUse">
<stop stop-color="#CBDAF1"/>
<stop offset="1" stop-color="#7089B9"/>
</linearGradient>
<linearGradient id="paint20_linear" x1="277.778" y1="122.857" x2="271.081" y2="134.167" gradientUnits="userSpaceOnUse">
<stop stop-color="#CBDAF1"/>
<stop offset="1" stop-color="#7089B9"/>
</linearGradient>
<linearGradient id="paint21_linear" x1="306.966" y1="122.857" x2="300.268" y2="134.167" gradientUnits="userSpaceOnUse">
<stop stop-color="#CBDAF1"/>
<stop offset="1" stop-color="#7089B9"/>
</linearGradient>
<radialGradient id="paint22_radial" cx="0" cy="0" r="1" gradientUnits="userSpaceOnUse" gradientTransform="translate(296.271 127.66) rotate(116.791) scale(11.037 20.5633)">
<stop stop-color="#CBDAF1"/>
<stop offset="1" stop-color="#7089B9"/>
</radialGradient>
<linearGradient id="paint23_linear" x1="278.243" y1="181.836" x2="307.795" y2="141.504" gradientUnits="userSpaceOnUse">
<stop stop-color="#CBDAF1"/>
<stop offset="1" stop-color="#7089B9"/>
</linearGradient>
<linearGradient id="paint24_linear" x1="275.764" y1="165.194" x2="285.884" y2="149.033" gradientUnits="userSpaceOnUse">
<stop stop-color="#FF9D61"/>
<stop offset="1" stop-color="#FFD873"/>
</linearGradient>
<linearGradient id="paint25_linear" x1="250.89" y1="182.732" x2="290.149" y2="190.514" gradientUnits="userSpaceOnUse">
<stop stop-color="#70B8F9"/>
<stop offset="1" stop-color="#3D82F0"/>
</linearGradient>
<linearGradient id="paint26_linear" x1="284.942" y1="200.878" x2="298.344" y2="210.487" gradientUnits="userSpaceOnUse">
<stop stop-color="#3879EE" stop-opacity="0.01"/>
<stop offset="1" stop-color="#003B9D"/>
</linearGradient>
<linearGradient id="paint27_linear" x1="272.365" y1="187.757" x2="272.365" y2="205.321" gradientUnits="userSpaceOnUse">
<stop stop-color="#70B8F9" stop-opacity="0.01"/>
<stop offset="1" stop-color="#3D82F0"/>
</linearGradient>
<linearGradient id="paint28_linear" x1="285.162" y1="171.625" x2="285.162" y2="185.704" gradientUnits="userSpaceOnUse">
<stop stop-color="#70B8F9" stop-opacity="0.01"/>
<stop offset="1" stop-color="#3D82F0"/>
</linearGradient>
<linearGradient id="paint29_linear" x1="297.785" y1="173.271" x2="297.785" y2="182.084" gradientUnits="userSpaceOnUse">
<stop stop-color="#70B8F9" stop-opacity="0.01"/>
<stop offset="1" stop-color="#3D82F0"/>
</linearGradient>
<linearGradient id="paint30_linear" x1="308.26" y1="176.064" x2="308.26" y2="180.602" gradientUnits="userSpaceOnUse">
<stop stop-color="#70B8F9" stop-opacity="0.01"/>
<stop offset="1" stop-color="#3D82F0"/>
</linearGradient>
<linearGradient id="paint31_linear" x1="274.35" y1="180.565" x2="274.35" y2="205.275" gradientUnits="userSpaceOnUse">
<stop stop-color="#70B8F9" stop-opacity="0.01"/>
<stop offset="1" stop-color="#3D82F0"/>
</linearGradient>
<linearGradient id="paint32_linear" x1="285.418" y1="175.588" x2="285.418" y2="185.614" gradientUnits="userSpaceOnUse">
<stop stop-color="#0D73CA"/>
<stop offset="1" stop-color="#063F9A"/>
</linearGradient>
<linearGradient id="paint33_linear" x1="297.527" y1="174.913" x2="297.527" y2="181.843" gradientUnits="userSpaceOnUse">
<stop stop-color="#0D73CA"/>
<stop offset="1" stop-color="#063F9A"/>
</linearGradient>
<linearGradient id="paint34_linear" x1="305.994" y1="173.487" x2="305.994" y2="180.417" gradientUnits="userSpaceOnUse">
<stop stop-color="#0D73CA"/>
<stop offset="1" stop-color="#063F9A"/>
</linearGradient>
<linearGradient id="paint35_linear" x1="268.627" y1="154.446" x2="268.627" y2="161.717" gradientUnits="userSpaceOnUse">
<stop stop-color="#D9E7FA"/>
<stop offset="1" stop-color="#B1CAF2"/>
</linearGradient>
<linearGradient id="paint36_linear" x1="281.164" y1="199.823" x2="281.164" y2="205.136" gradientUnits="userSpaceOnUse">
<stop stop-color="#0D73CA"/>
<stop offset="1" stop-color="#063F9A"/>
</linearGradient>
<linearGradient id="paint37_linear" x1="271.278" y1="167.064" x2="274.593" y2="172.92" gradientUnits="userSpaceOnUse">
<stop stop-color="#70B8F9" stop-opacity="0.01"/>
<stop offset="1" stop-color="#3D82F0" stop-opacity="0.526947"/>
</linearGradient>
<linearGradient id="paint38_linear" x1="265.328" y1="185.606" x2="264.382" y2="192.334" gradientUnits="userSpaceOnUse">
<stop stop-color="#D9E7FA"/>
<stop offset="1" stop-color="#B1CAF2"/>
</linearGradient>
<linearGradient id="paint39_linear" x1="134.49" y1="98.2269" x2="134.49" y2="104.216" gradientUnits="userSpaceOnUse">
<stop stop-color="#403F9F" stop-opacity="0.01"/>
<stop offset="1" stop-opacity="0.2"/>
</linearGradient>
<linearGradient id="paint40_linear" x1="132.992" y1="83.8523" x2="132.992" y2="98.227" gradientUnits="userSpaceOnUse">
<stop stop-color="#403F9F" stop-opacity="0.01"/>
<stop offset="1" stop-opacity="0.2"/>
</linearGradient>
<linearGradient id="paint41_linear" x1="134.49" y1="77.8628" x2="134.49" y2="83.8522" gradientUnits="userSpaceOnUse">
<stop stop-color="#403F9F" stop-opacity="0.01"/>
<stop offset="1" stop-opacity="0.2"/>
</linearGradient>
<linearGradient id="paint42_linear" x1="137.787" y1="14.9736" x2="137.787" y2="167.106" gradientUnits="userSpaceOnUse">
<stop stop-color="#403F9F" stop-opacity="0.01"/>
<stop offset="1" stop-opacity="0.2"/>
</linearGradient>
<linearGradient id="paint43_linear" x1="194.723" y1="98.2269" x2="194.723" y2="104.216" gradientUnits="userSpaceOnUse">
<stop stop-color="#403F9F" stop-opacity="0.01"/>
<stop offset="1" stop-opacity="0.2"/>
</linearGradient>
<linearGradient id="paint44_linear" x1="193.225" y1="83.8523" x2="193.225" y2="98.227" gradientUnits="userSpaceOnUse">
<stop stop-color="#403F9F" stop-opacity="0.01"/>
<stop offset="1" stop-opacity="0.2"/>
</linearGradient>
<linearGradient id="paint45_linear" x1="194.723" y1="77.8628" x2="194.723" y2="83.8522" gradientUnits="userSpaceOnUse">
<stop stop-color="#403F9F" stop-opacity="0.01"/>
<stop offset="1" stop-opacity="0.2"/>
</linearGradient>
<linearGradient id="paint46_linear" x1="198.02" y1="14.9736" x2="198.02" y2="167.106" gradientUnits="userSpaceOnUse">
<stop stop-color="#403F9F" stop-opacity="0.01"/>
<stop offset="1" stop-opacity="0.2"/>
</linearGradient>
<linearGradient id="paint47_linear" x1="114.311" y1="87.7917" x2="226.942" y2="137.641" gradientUnits="userSpaceOnUse">
<stop stop-color="#F2F5F9" stop-opacity="0.01"/>
<stop offset="1" stop-color="#403F9F" stop-opacity="0.2"/>
</linearGradient>
<linearGradient id="paint48_linear" x1="150.973" y1="34.4393" x2="150.973" y2="164.111" gradientUnits="userSpaceOnUse">
<stop stop-color="#E2628C" stop-opacity="0.01"/>
<stop offset="1" stop-color="#C74D75" stop-opacity="0.2"/>
</linearGradient>
<linearGradient id="paint49_linear" x1="155.768" y1="98.2269" x2="155.768" y2="104.216" gradientUnits="userSpaceOnUse">
<stop stop-color="#403F9F" stop-opacity="0.01"/>
<stop offset="1" stop-opacity="0.2"/>
</linearGradient>
<linearGradient id="paint50_linear" x1="154.27" y1="83.8523" x2="154.27" y2="98.227" gradientUnits="userSpaceOnUse">
<stop stop-color="#403F9F" stop-opacity="0.01"/>
<stop offset="1" stop-opacity="0.2"/>
</linearGradient>
<linearGradient id="paint51_linear" x1="155.768" y1="77.8628" x2="155.768" y2="83.8522" gradientUnits="userSpaceOnUse">
<stop stop-color="#403F9F" stop-opacity="0.01"/>
<stop offset="1" stop-opacity="0.2"/>
</linearGradient>
<linearGradient id="paint52_linear" x1="159.064" y1="14.9736" x2="159.064" y2="167.106" gradientUnits="userSpaceOnUse">
<stop stop-color="#403F9F" stop-opacity="0.01"/>
<stop offset="1" stop-opacity="0.2"/>
</linearGradient>
<linearGradient id="paint53_linear" x1="127" y1="167.106" x2="127" y2="182.079" gradientUnits="userSpaceOnUse">
<stop stop-color="#403F9F" stop-opacity="0.01"/>
<stop offset="1" stop-opacity="0.2"/>
</linearGradient>
<linearGradient id="paint54_linear" x1="215.998" y1="98.2269" x2="215.998" y2="104.216" gradientUnits="userSpaceOnUse">
<stop stop-color="#403F9F" stop-opacity="0.01"/>
<stop offset="1" stop-opacity="0.2"/>
</linearGradient>
<linearGradient id="paint55_linear" x1="214.5" y1="83.8523" x2="214.5" y2="98.227" gradientUnits="userSpaceOnUse">
<stop stop-color="#403F9F" stop-opacity="0.01"/>
<stop offset="1" stop-opacity="0.2"/>
</linearGradient>
<linearGradient id="paint56_linear" x1="215.998" y1="77.8628" x2="215.998" y2="83.8522" gradientUnits="userSpaceOnUse">
<stop stop-color="#403F9F" stop-opacity="0.01"/>
<stop offset="1" stop-opacity="0.2"/>
</linearGradient>
<linearGradient id="paint57_linear" x1="219.295" y1="14.9736" x2="219.295" y2="167.106" gradientUnits="userSpaceOnUse">
<stop stop-color="#403F9F" stop-opacity="0.01"/>
<stop offset="1" stop-opacity="0.2"/>
</linearGradient>
<linearGradient id="paint58_linear" x1="127" y1="0" x2="127" y2="14.9736" gradientUnits="userSpaceOnUse">
<stop stop-color="#403F9F" stop-opacity="0.01"/>
<stop offset="1" stop-opacity="0.2"/>
</linearGradient>
</defs>
</svg>
