<svg width="24" height="24" viewBox="0 0 24 24" fill="none" xmlns="http://www.w3.org/2000/svg">
<path fill-rule="evenodd" clip-rule="evenodd" d="M23.76 16.7649V2.54571C23.76 1.13974 22.6203 0 21.2143 0H2.54571C1.13974 0 0 1.13974 0 2.54571V21.2136C0 22.6196 1.13974 23.7594 2.54571 23.7594H16.7655C17.4407 23.7594 18.0882 23.4911 18.5656 23.0137L23.0144 18.565C23.4918 18.0876 23.76 17.4401 23.76 16.7649ZM16.9714 21.0078V16.9708H21.0084L16.9714 21.0078ZM21.2143 14.4251V2.54571H2.54571V21.2136H14.4257V15.6979C14.4257 14.9949 14.9956 14.4251 15.6986 14.4251H21.2143Z" fill="#42CC9D"/>
</svg>
