<?xml version="1.0" encoding="UTF-8"?>
<svg width="345px" height="221px" viewBox="0 0 345 221" version="1.1" xmlns="http://www.w3.org/2000/svg" xmlns:xlink="http://www.w3.org/1999/xlink">
    <!-- Generator: Sketch 57.1 (83088) - https://sketch.com -->
    <title>Group</title>
    <desc>Created with Sketch.</desc>
    <defs>
        <linearGradient x1="50%" y1="0%" x2="50%" y2="100%" id="linearGradient-1">
            <stop stop-color="#AF3B6E" stop-opacity="0" offset="0%"></stop>
            <stop stop-color="#000000" stop-opacity="0.2" offset="100%"></stop>
        </linearGradient>
        <path d="M0,65.9023669 C51.8721119,21.9674556 78.0387786,0 78.5,0 C78.9612214,0 105.127888,21.9674556 157,65.9023669 L157,154.810651 C157,158.781219 153.785459,162 149.820122,162 L7.17987805,162 C3.2145409,162 0,158.781219 0,154.810651 L0,65.9023669 Z" id="path-2"></path>
        <linearGradient x1="50%" y1="0%" x2="50%" y2="100%" id="linearGradient-3">
            <stop stop-color="#FFFFFF" stop-opacity="0" offset="0%"></stop>
            <stop stop-color="#000000" stop-opacity="0.05" offset="100%"></stop>
        </linearGradient>
        <rect id="path-4" x="11.9664634" y="65.9023669" width="133.067073" height="96.0976331" rx="7.2"></rect>
        <linearGradient x1="50%" y1="0%" x2="50%" y2="100%" id="linearGradient-5">
            <stop stop-color="#E478A3" stop-opacity="0" offset="0%"></stop>
            <stop stop-color="#AF3B6E" stop-opacity="0.3" offset="100%"></stop>
        </linearGradient>
        <path d="M78.5,122.218935 L157,65.9023669 L157,154.810651 C157,158.781219 153.785459,162 149.820122,162 L7.17987805,162 C3.2145409,162 0,158.781219 0,154.810651 L0,65.9023669 L78.5,122.218935 L78.5,122.218935 Z" id="path-6"></path>
        <linearGradient x1="0%" y1="0%" x2="100%" y2="0%" id="linearGradient-7">
            <stop stop-color="#AF3B6E" stop-opacity="0" offset="0%"></stop>
            <stop stop-color="#000000" stop-opacity="0.1" offset="100%"></stop>
        </linearGradient>
    </defs>
    <g id="Page-1" stroke="none" stroke-width="1" fill="none" fill-rule="evenodd">
        <g id="1.5_email_check-copy-6" transform="translate(-16.000000, -141.000000)">
            <g id="Group" transform="translate(16.000000, 141.000000)">
                <g id="Spot-02" fill="#F2F5F9">
                    <path d="M0,156.529172 C0,112.464338 22.2870296,94.0034672 77.6097561,81.5630936 C132.968118,69.3235569 140.304933,0 212.15331,0 C284.200345,0 378.886266,123.423788 331.114983,194.312076 C283.360764,265.270675 150.718217,168.473431 107.275261,200.609227 C63.7477424,232.592474 0,200.471531 0,156.529172 Z" id="Details"></path>
                </g>
                <g id="Mail" transform="translate(93.000000, 30.000000)">
                    <g id="Envelope">
                        <use fill="#009799" xlink:href="#path-2"></use>
                        <use fill="url(#linearGradient-1)" xlink:href="#path-2"></use>
                    </g>
                    <g id="Paper">
                        <use fill="#FFFFFF" xlink:href="#path-4"></use>
                        <use fill="url(#linearGradient-3)" xlink:href="#path-4"></use>
                    </g>
                    <g id="Envelope">
                        <use fill="#42CC9D" xlink:href="#path-6"></use>
                        <use fill="url(#linearGradient-5)" xlink:href="#path-6"></use>
                    </g>
                    <path d="M0,65.9023669 L0,65.6627219 C2.02777506,63.9613633 4.01626783,62.2790364 5.98323171,60.6301775 L78.5,112.872781 L151.016768,60.6301775 C152.983732,62.2790364 154.972225,63.9613633 157,65.6627219 L157,65.9023669 L78.5,122.45858 L0,65.9023669 Z" id="Sh" fill="url(#linearGradient-7)"></path>
                </g>
            </g>
        </g>
    </g>
</svg>